<?xml version="1.0" encoding="utf-8"?>
<!-- Generator: Adobe Illustrator 16.0.0, SVG Export Plug-In . SVG Version: 6.00 Build 0)  -->
<!DOCTYPE svg PUBLIC "-//W3C//DTD SVG 1.1//EN" "http://www.w3.org/Graphics/SVG/1.1/DTD/svg11.dtd">
<svg version="1.1" id="Layer_1" xmlns="http://www.w3.org/2000/svg" xmlns:xlink="http://www.w3.org/1999/xlink" x="0px" y="0px"
	 width="3467.637px" height="361.327px" viewBox="0 0 3467.637 361.327" enable-background="new 0 0 3467.637 361.327"
	 xml:space="preserve">
<g>
	<g>
		<path fill="#094632" d="M894.217,117.029h-43.799V60.628H750.167l0.002,56.401H669.03C644.354,48.72,581.193,0,507.326,0H411.75
			c5.973,3.594,11.77,7.478,17.334,11.673c13.444,10.139,25.673,21.932,36.323,35.175c2.097,2.61,4.117,5.286,6.09,8.01
			c5.822,7.991,11.075,16.464,15.764,25.304h20.065c52.688,0,95.556,45.085,95.556,100.501c0,55.41-42.867,100.493-95.556,100.493
			h-44.858h-85.262c-9.671,0-19.006-1.533-27.812-4.357c-6.106-1.959-11.918-4.614-17.443-7.748
			c-5.675-3.225-11.038-6.993-15.952-11.314c-20.973-18.447-34.345-46.139-34.345-77.073c0-25.753,9.302-49.225,24.509-67.012
			c-0.872-0.33-1.713-0.716-2.602-1c-6.226-1.998-12.832-3.08-19.674-3.08h-60.312h-5.152c-8.995,21.83-14.019,45.852-14.019,71.092
			c0,40.975,13.148,78.772,35.225,109.106c1.711,2.359,3.463,4.685,5.281,6.948c1.315,1.641,2.724,3.191,4.093,4.774
			c2.062,2.383,4.179,4.701,6.358,6.973c6.543,6.787,13.553,13.1,21.055,18.756c28.391,21.412,63.186,34.091,100.79,34.091h10.068
			h120.052c73.867,0,137.028-48.711,161.704-117.017h225.187V117.029z"/>
		<path fill="#094632" d="M214.725,314.472c-2.097-2.614-4.117-5.286-6.092-8.008c-5.82-7.995-11.075-16.468-15.761-25.3h-20.067
			c-52.688,0-95.556-45.092-95.556-100.508c0-55.409,42.867-100.488,95.556-100.488h44.86h85.26c9.673,0,19.008,1.525,27.813,4.352
			c6.106,1.959,11.918,4.614,17.441,7.75c5.677,3.226,11.04,6.991,15.954,11.312c20.973,18.447,34.345,46.139,34.345,77.075
			c0,25.754-9.302,49.224-24.509,67.011c0.87,0.33,1.711,0.717,2.6,1.002c6.228,1.996,12.833,3.08,19.676,3.08h60.312h5.152
			c8.995-21.824,14.019-45.854,14.019-71.093c0-40.974-13.15-78.773-35.225-109.108c-1.713-2.356-3.463-4.682-5.283-6.943
			c-1.315-1.635-2.722-3.195-4.093-4.778c-2.06-2.384-4.179-4.697-6.355-6.964c-6.546-6.787-13.553-13.104-21.056-18.763
			C375.323,12.688,340.53,0.006,302.924,0.006h-10.066H172.804C77.521,0.006,0,81.042,0,180.656
			c0,99.617,77.521,180.671,172.804,180.671h95.578c-5.973-3.604-11.77-7.487-17.334-11.681
			C237.604,339.507,225.373,327.715,214.725,314.472z"/>
	</g>
	<g>
		<path fill="#094632" d="M1103.8,279.782c-11.367,0-21.676-2.238-30.938-6.675c-9.265-4.437-17.171-10.799-23.712-19.083
			c-6.549-8.271-11.611-18.331-15.192-30.189s-5.375-25.316-5.375-40.394c0-15.06,2.161-28.528,6.486-40.391
			c4.321-11.848,10.003-21.913,17.041-30.196c7.041-8.263,15.192-14.627,24.457-19.08c9.263-4.441,18.713-6.653,28.343-6.653
			c10.378,0,18.901,1.711,25.568,5.17c6.667,3.468,13.208,8.153,19.637,14.087l-2.225-28.161v-62.62h54.466v259.727h-44.463
			l-3.705-18.146h-1.482c-6.426,6.429-13.958,11.789-22.602,16.118C1121.456,277.618,1112.688,279.782,1103.8,279.782z
			 M1117.877,235.322c5.933,0,11.299-1.245,16.122-3.716c4.816-2.461,9.446-6.786,13.891-12.959v-75.211
			c-4.941-4.455-10.007-7.531-15.19-9.271c-5.189-1.731-10.25-2.604-15.196-2.604c-8.645,0-16.297,4.15-22.969,12.421
			c-6.667,8.277-10.003,21.183-10.003,38.717c0,18.289,2.901,31.628,8.708,40.022
			C1099.044,231.116,1107.255,235.322,1117.877,235.322z"/>
		<path fill="#094632" d="M1239.773,347.96c-7.657,0-14.013-0.512-19.08-1.492c-5.058-0.981-9.448-2.227-13.153-3.711l9.632-40.004
			c2.474,0.734,4.82,1.344,7.042,1.855c2.227,0.479,4.69,0.734,7.412,0.734c7.156,0,12.163-2.359,15.002-7.047
			c2.839-4.688,4.264-12.217,4.264-22.6V91.552h54.468v182.664c0,10.131-1.054,19.64-3.15,28.537
			c-2.103,8.886-5.686,16.666-10.747,23.338c-5.065,6.68-11.799,11.974-20.195,15.932
			C1262.869,345.964,1252.372,347.96,1239.773,347.96z M1278.309,64.508c-9.141,0-16.67-2.651-22.601-7.962
			c-5.927-5.307-8.89-12.172-8.89-20.568c0-8.387,2.962-15.196,8.89-20.379c5.931-5.176,13.46-7.778,22.601-7.778
			c9.135,0,16.672,2.602,22.604,7.778c5.929,5.183,8.89,11.993,8.89,20.379c0,8.396-2.96,15.262-8.89,20.568
			C1294.981,61.856,1287.444,64.508,1278.309,64.508z"/>
		<path fill="#094632" d="M1399.836,279.782c-8.401,0-15.994-1.422-22.787-4.268c-6.795-2.832-12.539-6.795-17.227-11.857
			c-4.696-5.063-8.337-10.927-10.93-17.603c-2.593-6.667-3.892-13.948-3.892-21.857c0-19.263,8.153-34.333,24.452-45.204
			c16.304-10.861,42.611-18.155,78.918-21.85c-0.491-8.162-2.903-14.646-7.22-19.463c-4.325-4.814-11.551-7.217-21.68-7.217
			c-7.904,0-15.742,1.482-23.524,4.438c-7.781,2.973-16.116,7.053-25.012,12.229l-19.635-35.936
			c11.854-7.16,24.268-12.967,37.235-17.42c12.967-4.441,26.737-6.653,41.317-6.653c23.71,0,41.803,6.723,54.277,20.183
			c12.469,13.473,18.709,34.396,18.709,62.811v105.21h-44.458l-3.705-18.893h-1.482c-7.908,6.919-16.181,12.535-24.825,16.864
			C1419.719,277.618,1410.214,279.782,1399.836,279.782z M1418.364,237.54c6.17,0,11.487-1.344,15.928-4.082
			c4.449-2.721,9.137-6.539,14.079-11.486v-32.228c-19.264,2.722-32.602,6.671-40.009,11.858
			c-7.414,5.179-11.118,11.363-11.118,18.521c0,5.925,1.911,10.316,5.741,13.157C1406.811,236.122,1411.936,237.54,1418.364,237.54z
			"/>
		<path fill="#094632" d="M1548.781,275.325V91.552h44.462l3.705,23.342h1.48c7.902-7.399,16.549-13.887,25.935-19.445
			c9.382-5.552,20.377-8.327,32.977-8.327c20.004,0,34.514,6.54,43.535,19.618c9.009,13.095,13.52,31.256,13.52,54.478v114.107
			h-54.463V168.256c0-13.343-1.794-22.481-5.373-27.417c-3.583-4.934-9.329-7.418-17.227-7.418c-6.917,0-12.848,1.551-17.785,4.63
			c-4.941,3.094-10.374,7.471-16.303,13.162v124.112H1548.781z"/>
		<path fill="#094632" d="M1826.294,353.51c-10.877,0-20.938-0.937-30.198-2.783c-9.27-1.859-17.412-4.639-24.455-8.333
			c-7.038-3.707-12.539-8.515-16.488-14.447c-3.95-5.93-5.93-12.964-5.93-21.119c0-14.819,8.766-27.181,26.307-37.052V268.3
			c-4.944-3.217-9.022-7.29-12.226-12.238c-3.212-4.932-4.82-11.239-4.82-18.893c0-6.671,1.979-13.021,5.93-19.078
			c3.949-6.057,8.89-11.178,14.822-15.383v-1.489c-6.428-4.424-12.176-10.794-17.23-19.076c-5.063-8.273-7.591-17.845-7.591-28.705
			c0-11.123,2.09-20.804,6.296-29.094c4.197-8.275,9.817-15.186,16.855-20.746c7.043-5.564,15.128-9.683,24.27-12.417
			c9.142-2.709,18.646-4.059,28.532-4.059c10.869,0,20.377,1.47,28.524,4.43h67.064v39.651h-29.271
			c1.728,2.719,3.149,6.177,4.268,10.372c1.108,4.2,1.665,8.772,1.665,13.711c0,10.622-1.859,19.825-5.562,27.607
			c-3.703,7.778-8.836,14.206-15.376,19.253c-6.543,5.071-14.204,8.841-22.97,11.314c-8.771,2.47-18.217,3.698-28.344,3.698
			c-7.166,0-14.579-1.229-22.236-3.698c-2.466,1.962-4.201,3.946-5.183,5.921c-0.989,1.975-1.48,4.568-1.48,7.78
			c0,4.692,2.033,8.16,6.11,10.378c4.078,2.219,11.302,3.332,21.672,3.332h29.642c22.728,0,40.078,3.648,52.06,10.931
			c11.982,7.294,17.97,19.214,17.97,35.761c0,9.627-2.408,18.455-7.225,26.491c-4.815,8.02-11.668,14.942-20.558,20.748
			c-8.898,5.793-19.644,10.37-32.235,13.706C1856.299,351.849,1842.094,353.51,1826.294,353.51z M1834.813,319.419
			c12.349,0,22.472-2.169,30.38-6.481c7.904-4.325,11.858-9.698,11.858-16.118c0-5.686-2.408-9.512-7.229-11.482
			c-4.812-1.983-11.796-2.965-20.934-2.965h-18.896c-6.428,0-11.606-0.186-15.565-0.564c-3.949-0.359-7.405-0.92-10.373-1.658
			c-6.664,5.93-10.003,11.966-10.003,18.146c0,6.927,3.71,12.176,11.12,15.759C1812.58,317.63,1822.459,319.419,1834.813,319.419z
			 M1830.367,184.182c7.158,0,13.153-2.525,17.97-7.591c4.815-5.069,7.224-12.788,7.224-23.153c0-9.632-2.408-16.984-7.224-22.054
			c-4.816-5.057-10.812-7.597-17.97-7.597c-7.166,0-13.152,2.47-17.973,7.416c-4.816,4.944-7.224,12.355-7.224,22.235
			c0,10.365,2.407,18.084,7.224,23.153C1817.215,181.656,1823.201,184.182,1830.367,184.182z"/>
		<path fill="#094632" d="M2030.817,279.782c-11.615,0-22.854-2.164-33.716-6.485c-10.877-4.329-20.442-10.556-28.714-18.711
			c-8.279-8.156-14.885-18.217-19.828-30.198c-4.944-11.975-7.409-25.618-7.409-40.946c0-15.309,2.465-28.953,7.409-40.943
			c4.943-11.976,11.549-22.044,19.828-30.188c8.271-8.162,17.837-14.377,28.714-18.713c10.861-4.321,22.101-6.475,33.716-6.475
			c11.603,0,22.781,2.154,33.53,6.475c10.749,4.336,20.249,10.552,28.528,18.713c8.275,8.144,14.877,18.212,19.82,30.188
			c4.943,11.99,7.413,25.634,7.413,40.943c0,15.328-2.47,28.972-7.413,40.946c-4.943,11.981-11.545,22.042-19.82,30.198
			c-8.279,8.155-17.779,14.382-28.528,18.711C2053.599,277.618,2042.42,279.782,2030.817,279.782z M2030.817,235.693
			c11.112,0,19.507-4.7,25.197-14.085c5.678-9.393,8.519-22.109,8.519-38.167s-2.841-28.77-8.519-38.154
			c-5.69-9.382-14.085-14.085-25.197-14.085c-11.367,0-19.828,4.703-25.387,14.085c-5.554,9.384-8.329,22.096-8.329,38.154
			s2.775,28.774,8.329,38.167C2010.989,230.993,2019.45,235.693,2030.817,235.693z"/>
		<path fill="#094632" d="M2149.372,200.86v-38.54h91.147v38.54H2149.372z"/>
		<path fill="#094632" d="M2334.624,279.782c-12.102,0-24.517-2.354-37.237-7.046c-12.724-4.692-23.774-10.869-33.158-18.53
			l24.454-34.082c8.396,6.432,16.423,11.248,24.084,14.456c7.652,3.212,15.43,4.808,23.338,4.808c8.151,0,14.085-1.349,17.787-4.065
			c3.711-2.726,5.559-6.548,5.559-11.487c0-2.977-1.048-5.62-3.15-7.975c-2.104-2.338-4.939-4.494-8.519-6.474
			c-3.587-1.979-7.595-3.772-12.04-5.385c-4.453-1.6-9.021-3.39-13.714-5.372c-5.686-2.215-11.355-4.816-17.041-7.769
			c-5.686-2.981-10.873-6.609-15.565-10.935c-4.692-4.323-8.519-9.38-11.483-15.188c-2.964-5.816-4.444-12.544-4.444-20.193
			c0-8.399,1.666-16.177,5.001-23.352c3.332-7.153,8.09-13.204,14.263-18.148c6.173-4.942,13.586-8.83,22.229-11.671
			c8.642-2.839,18.282-4.253,28.903-4.253c14.081,0,26.43,2.391,37.043,7.211c10.63,4.816,19.887,10.19,27.795,16.128l-24.455,32.59
			c-6.663-4.938-13.215-8.758-19.631-11.489c-6.428-2.705-12.852-4.072-19.268-4.072c-13.838,0-20.748,4.82-20.748,14.464
			c0,2.958,0.981,5.496,2.965,7.597c1.971,2.093,4.626,4.017,7.966,5.735c3.327,1.73,7.162,3.383,11.483,4.998
			c4.321,1.612,8.832,3.278,13.528,5.01c5.925,2.22,11.788,4.752,17.598,7.591c5.797,2.839,11.112,6.369,15.928,10.557
			c4.816,4.204,8.708,9.329,11.669,15.374c2.965,6.057,4.444,13.285,4.444,21.68s-1.607,16.176-4.815,23.342
			c-3.208,7.162-8.023,13.404-14.448,18.711c-6.424,5.314-14.328,9.516-23.708,12.604
			C2357.842,278.236,2346.973,279.782,2334.624,279.782z"/>
		<path fill="#094632" d="M2526.922,279.782c-13.099,0-25.324-2.164-36.684-6.485c-11.368-4.329-21.247-10.63-29.646-18.901
			c-8.395-8.271-14.942-18.331-19.63-30.198c-4.696-11.854-7.039-25.428-7.039-40.756c0-14.816,2.466-28.213,7.41-40.201
			c4.936-11.974,11.421-22.103,19.449-30.386c8.027-8.263,17.23-14.627,27.604-19.08c10.374-4.441,21.119-6.653,32.235-6.653
			c13.091,0,24.513,2.212,34.268,6.653c9.76,4.453,17.911,10.627,24.455,18.536c6.548,7.909,11.426,17.227,14.638,27.966
			c3.208,10.753,4.815,22.418,4.815,35.01c0,4.948-0.247,9.634-0.742,14.087c-0.494,4.44-0.985,7.776-1.48,9.999h-110.044
			c2.466,13.347,7.97,23.16,16.488,29.469c8.523,6.283,18.959,9.441,31.308,9.441c13.092,0,26.311-4.073,39.649-12.233
			l18.154,32.978c-9.396,6.42-19.824,11.491-31.308,15.189C2549.332,277.932,2538.034,279.782,2526.922,279.782z M2486.164,163.436
			h66.326c0-10.37-2.358-18.777-7.047-25.195c-4.688-6.426-12.596-9.638-23.712-9.638c-8.65,0-16.241,2.853-22.789,8.523
			C2492.395,142.822,2488.14,151.584,2486.164,163.436z"/>
		<path fill="#094632" d="M2690.684,279.782c-12.105,0-24.517-2.354-37.236-7.046c-12.729-4.692-23.774-10.869-33.167-18.53
			l24.463-34.082c8.387,6.432,16.423,11.248,24.079,14.456c7.653,3.212,15.434,4.808,23.342,4.808
			c8.151,0,14.081-1.349,17.783-4.065c3.707-2.726,5.559-6.548,5.559-11.487c0-2.977-1.056-5.62-3.15-7.975
			c-2.099-2.338-4.943-4.494-8.519-6.474c-3.587-1.979-7.595-3.772-12.044-5.385c-4.449-1.6-9.018-3.39-13.71-5.372
			c-5.686-2.215-11.363-4.816-17.045-7.769c-5.682-2.981-10.865-6.609-15.557-10.935c-4.697-4.323-8.523-9.38-11.487-15.188
			c-2.965-5.816-4.445-12.544-4.445-20.193c0-8.399,1.67-16.177,5.002-23.352c3.335-7.153,8.085-13.204,14.266-18.148
			c6.169-4.942,13.578-8.83,22.229-11.671c8.643-2.839,18.274-4.253,28.899-4.253c14.081,0,26.426,2.391,37.056,7.211
			c10.613,4.816,19.878,10.19,27.786,16.128l-24.455,32.59c-6.667-4.938-13.211-8.758-19.639-11.489
			c-6.424-2.705-12.844-4.072-19.268-4.072c-13.833,0-20.744,4.82-20.744,14.464c0,2.958,0.981,5.496,2.961,7.597
			c1.979,2.093,4.634,4.017,7.966,5.735c3.331,1.73,7.162,3.383,11.487,4.998c4.317,1.612,8.828,3.278,13.524,5.01
			c5.933,2.22,11.788,4.752,17.598,7.591c5.797,2.839,11.116,6.369,15.932,10.557c4.816,4.204,8.704,9.329,11.669,15.374
			c2.969,6.057,4.453,13.285,4.453,21.68s-1.616,16.176-4.816,23.342c-3.216,7.162-8.031,13.404-14.451,18.711
			c-6.429,5.314-14.332,9.516-23.717,12.604C2713.894,278.236,2703.028,279.782,2690.684,279.782z"/>
		<path fill="#094632" d="M2847.032,279.782c-8.399,0-15.994-1.422-22.789-4.268c-6.791-2.832-12.535-6.795-17.223-11.857
			c-4.696-5.063-8.342-10.927-10.931-17.603c-2.594-6.667-3.893-13.948-3.893-21.857c0-19.263,8.155-34.333,24.455-45.204
			c16.303-10.861,42.609-18.155,78.918-21.85c-0.499-8.162-2.902-14.646-7.224-19.463c-4.33-4.814-11.554-7.217-21.672-7.217
			c-7.912,0-15.755,1.482-23.527,4.438c-7.784,2.973-16.121,7.053-25.011,12.229l-19.64-35.936
			c11.854-7.16,24.27-12.967,37.233-17.42c12.972-4.441,26.738-6.653,41.314-6.653c23.712,0,41.801,6.723,54.277,20.183
			c12.473,13.473,18.712,34.396,18.712,62.811v105.21h-44.457l-3.707-18.893h-1.484c-7.908,6.919-16.184,12.535-24.821,16.864
			C2866.918,277.618,2857.401,279.782,2847.032,279.782z M2865.558,237.54c6.177,0,11.487-1.344,15.932-4.082
			c4.449-2.721,9.138-6.539,14.081-11.486v-32.228c-19.264,2.722-32.603,6.671-40.016,11.858
			c-7.409,5.179-11.112,11.363-11.112,18.521c0,5.925,1.909,10.316,5.744,13.157C2854.008,236.122,2859.134,237.54,2865.558,237.54z
			"/>
		<path fill="#094632" d="M2995.979,275.325V91.552h44.465l3.707,23.721h1.476c7.653-7.65,15.805-14.266,24.455-19.824
			c8.643-5.552,19.021-8.327,31.118-8.327c13.095,0,23.654,2.645,31.683,7.954c8.023,5.329,14.386,12.914,19.082,22.787
			c8.147-8.385,16.736-15.615,25.754-21.672c9.013-6.053,19.692-9.069,32.045-9.069c19.759,0,34.276,6.597,43.533,19.816
			c9.265,13.217,13.896,31.304,13.896,54.28v114.107h-54.464V168.256c0-13.343-1.794-22.481-5.372-27.417
			c-3.579-4.934-9.327-7.418-17.231-7.418c-9.137,0-19.639,5.936-31.493,17.792v124.112h-54.463V168.256
			c0-13.343-1.794-22.481-5.369-27.417c-3.587-4.934-9.326-7.418-17.23-7.418c-9.393,0-19.763,5.936-31.126,17.792v124.112H2995.979
			z"/>
		<path fill="#094632" d="M3395.761,279.782c-13.099,0-25.324-2.164-36.68-6.485c-11.368-4.329-21.251-10.63-29.646-18.901
			c-8.399-8.271-14.943-18.331-19.64-30.198c-4.688-11.854-7.034-25.428-7.034-40.756c0-14.816,2.466-28.213,7.41-40.201
			c4.931-11.974,11.421-22.103,19.449-30.386c8.023-8.263,17.23-14.627,27.604-19.08c10.374-4.441,21.119-6.653,32.235-6.653
			c13.087,0,24.513,2.212,34.272,6.653c9.755,4.453,17.902,10.627,24.45,18.536c6.539,7.909,11.421,17.227,14.638,27.966
			c3.208,10.753,4.815,22.418,4.815,35.01c0,4.948-0.251,9.634-0.742,14.087c-0.499,4.44-0.989,7.776-1.48,9.999H3355.37
			c2.466,13.347,7.966,23.16,16.488,29.469c8.523,6.283,18.955,9.441,31.313,9.441c13.091,0,26.302-4.073,39.641-12.233
			l18.154,32.978c-9.389,6.42-19.82,11.491-31.308,15.189C3418.175,277.932,3406.877,279.782,3395.761,279.782z M3355.003,163.436
			h66.322c0-10.37-2.354-18.777-7.043-25.195c-4.696-6.426-12.596-9.638-23.717-9.638c-8.646,0-16.236,2.853-22.784,8.523
			C3361.237,142.822,3356.979,151.584,3355.003,163.436z"/>
	</g>
</g>
</svg>
