<svg xmlns="http://www.w3.org/2000/svg" width="920" height="128" viewBox="0 0 920 128">
  <g fill="#094632">
    <path d="m 69.788585,100.32897 c -0.525751,-0.651214 -1.03145,-1.316799 -1.526658,-1.993743 -1.45788,-1.991423 -2.773771,-4.102701 -3.947675,-6.302771 h -5.027154 c -13.198318,0 -23.936684,-11.231482 -23.936684,-25.034658 0,-13.80109 10.738133,-25.030718 23.936684,-25.030718 h 11.237537 21.357592 c 2.423116,0 4.761364,0.381129 6.967185,1.084502 1.529688,0.487771 2.985468,1.149415 4.368978,1.930915 1.42174,0.80306 2.76537,1.740814 3.99663,2.817202 5.25354,4.594876 8.60319,11.492291 8.60319,19.198099 0,6.414744 -2.33009,12.260809 -6.13997,16.691086 0.21799,0.08207 0.42923,0.178741 0.65188,0.249681 1.56,0.497044 3.21466,0.767126 4.92877,0.767126 h 15.10827 1.29048 c 2.25268,-5.435957 3.51145,-11.420424 3.51145,-17.707893 0,-10.206561 -3.29392,-19.620262 -8.82328,-27.177235 -0.42969,-0.587458 -0.86778,-1.16657 -1.32312,-1.729454 -0.33014,-0.40663 -0.68289,-0.794946 -1.02562,-1.190216 -0.51596,-0.592559 -1.04684,-1.169816 -1.59217,-1.734555 -1.6395,-1.690506 -3.39511,-3.263939 -5.27429,-4.673003 -7.11221,-5.334184 -15.82847,-8.492408 -25.248149,-8.492408 H 89.360724 59.287331 C 35.41896,22.000927 16,42.185001 16,66.998029 16,91.811058 35.41896,112 59.287331,112 h 23.94228 c -1.496116,-0.89765 -2.9484,-1.86507 -4.342629,-2.90947 -3.367135,-2.52556 -6.431176,-5.46285 -9.098397,-8.76156 z" />
    <path d="M 240,51.147792 H 229.02989 V 37.101426 H 203.91604 V 51.148024 H 183.59129 C 177.41075,34.135389 161.58764,22 143.08543,22 h -23.94228 c 1.49611,0.894401 2.9484,1.862061 4.34216,2.906456 3.3676,2.526487 6.43117,5.463777 9.09956,8.76249 0.52575,0.650052 1.03029,1.316565 1.52549,1.994436 1.45905,1.990264 2.77471,4.100847 3.94768,6.302771 h 5.02739 c 13.19878,0 23.93551,11.230555 23.93551,25.033731 0,13.80109 -10.73673,25.030718 -23.93551,25.030718 h -11.23708 -21.35829 c -2.42265,0 -4.76113,-0.382057 -6.96671,-1.084503 -1.53016,-0.48893 -2.98571,-1.150573 -4.369679,-1.930914 -1.421741,-0.80306 -2.764911,-1.741973 -3.996636,-2.818129 -5.253075,-4.594645 -8.603189,-11.492292 -8.603189,-19.197172 0,-6.414744 2.330788,-12.261736 6.139972,-16.692245 -0.218693,-0.08114 -0.429227,-0.177582 -0.651884,-0.24945 C 90.481936,49.561145 88.827746,49.29199 87.113636,49.29199 H 72.005363 70.714885 c -2.25315,5.437116 -3.51192,11.420656 -3.51192,17.707894 0,10.205402 3.293692,19.620262 8.823748,27.176075 0.42876,0.587458 0.86778,1.166802 1.323119,1.730613 0.329439,0.408949 0.681727,0.794946 1.025155,1.18929 0.516425,0.593717 1.046838,1.170743 1.592639,1.736641 1.639036,1.690507 3.395113,3.262777 5.273825,4.671847 7.112203,5.33348 15.828699,8.49148 25.248379,8.49148 h 2.52197 30.07339 c 18.50362,0 34.32649,-12.134233 40.50564,-29.147795 H 240 Z" />
  </g>
  <g fill="#094632">
    <path d="m 288.58253,92.804943 c -2.95936,0 -5.64328,-0.582662 -8.05462,-1.737833 -2.41211,-1.155172 -4.47042,-2.811516 -6.17335,-4.968252 -1.70501,-2.153352 -3.02289,-4.772469 -3.95519,-7.859695 C 269.46706,75.151937 269,71.648152 269,67.722601 c 0,-3.920866 0.56261,-7.427254 1.68861,-10.515782 1.12496,-3.084622 2.60425,-5.705041 4.43658,-7.861517 1.8331,-2.151269 3.95519,-3.808134 6.36731,-4.967471 2.41159,-1.156212 4.87187,-1.732106 7.37902,-1.732106 2.70188,0 4.92082,0.445458 6.65655,1.346008 1.73574,0.902892 3.43867,2.12263 5.11244,3.667545 l -0.57927,-7.331706 V 24.024479 h 14.18007 v 67.619826 h -11.57582 l -0.96458,-4.724304 h -0.38584 c -1.67299,1.673787 -3.63393,3.069261 -5.88437,4.196315 -2.25148,1.125231 -4.5342,1.688627 -6.84817,1.688627 z m 3.66491,-11.575144 c 1.54464,0 2.94166,-0.324135 4.19732,-0.967459 1.25383,-0.64072 2.45924,-1.766732 3.61648,-3.373871 V 57.307314 c -1.28638,-1.159857 -2.6053,-1.960693 -3.95467,-2.413701 -1.35095,-0.450665 -2.66856,-0.677951 -3.95624,-0.677951 -2.2507,0 -4.24288,1.080451 -5.97991,3.233803 -1.73574,2.154914 -2.60426,5.514986 -2.60426,10.079956 0,4.761534 0.75527,8.234338 2.26711,10.419713 1.51105,2.185635 3.64876,3.280665 6.41417,3.280665 z" />
    <path d="m 323.98272,110.55506 c -1.99348,0 -3.64825,-0.1333 -4.96743,-0.38844 -1.31683,-0.2554 -2.45976,-0.5798 -3.42434,-0.96616 l 2.50766,-10.415025 c 0.6441,0.191096 1.25487,0.349909 1.83337,0.482948 0.57979,0.124708 1.22102,0.191097 1.92969,0.191097 1.86304,0 3.1666,-0.614165 3.90573,-1.834684 0.73912,-1.220519 1.11012,-3.180691 1.11012,-5.883902 v -47.94156 h 14.18059 v 47.556503 c 0,2.637602 -0.27441,5.113267 -0.8201,7.429598 -0.54751,2.313465 -1.48033,4.338985 -2.79795,6.076035 -1.31866,1.73914 -3.07183,3.11743 -5.25771,4.14789 -2.18666,1.02604 -4.91952,1.5457 -8.19963,1.5457 z m 10.03273,-73.796621 c -2.37983,0 -4.33998,-0.690187 -5.8841,-2.072903 -1.54308,-1.381676 -2.31449,-3.168976 -2.31449,-5.354871 0,-2.183553 0.77115,-3.956273 2.31449,-5.305665 1.54412,-1.34757 3.50427,-2.025 5.8841,-2.025 2.37828,0 4.34051,0.67743 5.88489,2.025 1.5436,1.349392 2.31449,3.122373 2.31449,5.305665 0,2.185895 -0.77063,3.973456 -2.31449,5.354871 -1.54438,1.382456 -3.50661,2.072903 -5.88489,2.072903 z" />
    <path d="m 365.65466,92.804943 c -2.18717,0 -4.16399,-0.370217 -5.93253,-1.111172 -1.76906,-0.73731 -3.26449,-1.769075 -4.485,-3.086965 -1.22259,-1.31815 -2.17051,-2.844841 -2.84559,-4.582935 -0.67508,-1.735751 -1.01327,-3.631356 -1.01327,-5.690461 0,-5.015115 2.12261,-8.938584 6.36601,-11.768844 4.2447,-2.827658 11.09365,-4.726648 20.54607,-5.68864 -0.12783,-2.124973 -0.75578,-3.81308 -1.8797,-5.067184 -1.126,-1.253323 -3.00727,-1.878944 -5.64433,-1.878944 -2.05778,0 -4.09838,0.385839 -6.12441,1.155432 -2.02576,0.77402 -4.19575,1.836246 -6.5118,3.183816 l -5.11192,-9.355924 c 3.08616,-1.864104 6.31811,-3.375954 9.69403,-4.535291 3.37592,-1.156212 6.9609,-1.732106 10.75676,-1.732106 6.17284,0 10.8833,1.750331 14.13087,5.254637 3.24627,3.50769 4.87083,8.954985 4.87083,16.35282 v 27.391383 h -11.57451 l -0.96459,-4.918785 h -0.38583 c -2.05883,1.801359 -4.21268,3.263482 -6.46312,4.390536 -2.25148,1.125231 -4.72608,1.688627 -7.42797,1.688627 z m 4.82372,-10.997688 c 1.60634,0 2.9906,-0.34991 4.14681,-1.062747 1.15828,-0.708412 2.37879,-1.702427 3.66542,-2.990376 v -8.390548 c -5.01532,0.708672 -8.48783,1.736793 -10.41623,3.087226 -1.93021,1.348351 -2.89454,2.958353 -2.89454,4.821935 0,1.542572 0.49753,2.685767 1.49466,3.42542 0.99609,0.739914 2.33036,1.10909 4.00388,1.10909 z" />
    <path d="M 404.43207,91.644565 V 43.799334 h 11.57556 l 0.96458,6.077081 h 0.38532 c 2.05726,-1.926327 4.30848,-3.615475 6.7521,-5.062498 2.44258,-1.445461 5.3051,-2.167931 8.58547,-2.167931 5.20798,0 8.98562,1.702686 11.33421,5.107538 2.34547,3.409279 3.5199,8.137488 3.5199,14.183327 V 91.644565 H 433.36992 V 63.769192 c 0,-3.473845 -0.46706,-5.85292 -1.39885,-7.138006 -0.93282,-1.284565 -2.42877,-1.931273 -4.485,-1.931273 -1.80082,0 -3.34494,0.403802 -4.63027,1.205418 -1.28638,0.805522 -2.70084,1.945072 -4.24444,3.426722 v 32.312512 z" />
    <path d="m 476.68179,112 c -2.83179,0 -5.45115,-0.24395 -7.86196,-0.72455 -2.41342,-0.48399 -4.53316,-1.20776 -6.36679,-2.1695 -1.83232,-0.96511 -3.26449,-2.21687 -4.2926,-3.76127 -1.02838,-1.54387 -1.54386,-3.37517 -1.54386,-5.498321 0,-3.858121 2.2822,-7.076563 6.84895,-9.646474 v -0.384276 c -1.28716,-0.837545 -2.34885,-1.897949 -3.183,-3.186159 -0.83624,-1.284044 -1.25488,-2.926069 -1.25488,-4.918785 0,-1.736792 0.51523,-3.390012 1.54386,-4.96695 1.02811,-1.576938 2.31449,-2.910188 3.85887,-4.004958 v -0.387661 c -1.67351,-1.151787 -3.16999,-2.810214 -4.48578,-4.966429 -1.31814,-2.153873 -1.9763,-4.645939 -1.9763,-7.473336 0,-2.895869 0.54413,-5.416314 1.63915,-7.574612 1.09267,-2.154393 2.55582,-3.953669 4.38815,-5.401213 1.83362,-1.448585 3.93853,-2.520965 6.31862,-3.232761 2.3801,-0.705287 4.85444,-1.056759 7.42823,-1.056759 2.82971,0 5.30509,0.382714 7.42614,1.153348 h 17.45992 v 10.323123 h -7.62062 c 0.44988,0.707891 0.81983,1.60818 1.11116,2.700346 0.28847,1.093469 0.43348,2.283787 0.43348,3.569654 0,2.765434 -0.48399,5.161431 -1.44805,7.187472 -0.96407,2.024999 -2.30043,3.698527 -4.0031,5.012511 -1.70345,1.320233 -3.69797,2.301751 -5.98017,2.945596 -2.28351,0.643063 -4.74275,0.962773 -7.37928,0.962773 -1.86565,0 -3.7956,-0.31997 -5.78908,-0.962773 -0.64202,0.510806 -1.09372,1.027339 -1.34938,1.54153 -0.25749,0.51419 -0.38532,1.189277 -0.38532,2.02552 0,1.22156 0.52929,2.124453 1.59073,2.701908 1.06169,0.577716 2.94244,0.867485 5.64224,0.867485 h 7.71721 c 5.91717,0 10.43419,0.949756 13.55367,2.845882 3.11948,1.89899 4.67844,5.002358 4.67844,9.310363 0,2.506386 -0.62691,4.804752 -1.88101,6.896926 -1.25357,2.088 -3.03773,3.89014 -5.35221,5.40173 -2.31657,1.5082 -5.11426,2.69983 -8.39229,3.56835 C 484.49351,111.56756 480.79528,112 476.68179,112 Z m 2.2179,-8.87558 c 3.21503,0 5.85052,-0.5647 7.90935,-1.68732 2.05778,-1.12602 3.08719,-2.524875 3.08719,-4.19632 0,-1.480348 -0.62691,-2.476445 -1.88205,-2.989334 -1.25279,-0.516273 -3.07105,-0.771937 -5.4501,-0.771937 h -4.91952 c -1.67351,0 -3.02159,-0.04842 -4.05231,-0.146837 -1.02811,-0.09347 -1.92787,-0.239522 -2.70058,-0.43166 -1.73495,1.543874 -2.60425,3.115344 -2.60425,4.724305 0,1.803441 0.96589,3.170013 2.89506,4.102853 1.92891,0.93049 4.50088,1.39625 7.71721,1.39625 z m -1.1575,-35.2089 c 1.86356,0 3.42434,-0.657383 4.67844,-1.976314 1.25357,-1.319712 1.88074,-3.329351 1.88074,-6.027875 0,-2.507688 -0.62691,-4.421778 -1.88074,-5.741751 -1.25384,-1.316588 -2.81488,-1.977876 -4.67844,-1.977876 -1.86565,0 -3.42409,0.643064 -4.67922,1.930753 -1.25383,1.287169 -1.88075,3.21662 -1.88075,5.788874 0,2.698524 0.62666,4.708163 1.88075,6.027875 1.25513,1.318671 2.81357,1.976314 4.67922,1.976314 z" />
    <path d="m 529.92878,92.804943 c -3.02394,0 -5.94998,-0.563396 -8.77787,-1.688367 -2.8318,-1.127053 -5.32202,-2.74825 -7.47561,-4.871402 -2.15541,-2.123411 -3.87527,-4.742789 -5.16216,-7.862037 -1.28716,-3.117687 -1.92891,-6.669637 -1.92891,-10.660276 0,-3.985692 0.64175,-7.537903 1.92891,-10.659494 1.28689,-3.117948 3.00675,-5.739148 5.16216,-7.859435 2.15333,-2.124973 4.64381,-3.743046 7.47561,-4.871922 2.82763,-1.124971 5.75393,-1.685764 8.77787,-1.685764 3.0208,0 5.93096,0.560793 8.72944,1.685764 2.79847,1.128876 5.27177,2.747209 7.42718,4.871922 2.15437,2.120287 3.87318,4.741487 5.16008,7.859435 1.2869,3.121591 1.92995,6.673802 1.92995,10.659494 0,3.990639 -0.64305,7.542849 -1.92995,10.660276 -1.2869,3.119248 -3.00571,5.738626 -5.16008,7.862037 -2.15541,2.123152 -4.62871,3.744349 -7.42718,4.871402 -2.79822,1.124971 -5.70864,1.688367 -8.72944,1.688367 z m 0,-11.478554 c 2.89297,0 5.07859,-1.223643 6.55996,-3.667024 1.47825,-2.445464 2.2179,-5.75607 2.2179,-9.936764 0,-4.180695 -0.73965,-7.490259 -2.2179,-9.93338 -1.48137,-2.4426 -3.66699,-3.667024 -6.55996,-3.667024 -2.95937,0 -5.16217,1.224424 -6.60944,3.667024 -1.44597,2.443121 -2.16843,5.752685 -2.16843,9.93338 0,4.180694 0.72246,7.4913 2.16843,9.936764 1.44727,2.443381 3.65007,3.667024 6.60944,3.667024 z" />
    <path d="M 560.79423,72.257631 V 62.223756 h 23.72987 v 10.033875 z" />
    <path d="m 609.02407,92.804943 c -3.15073,0 -6.38294,-0.612863 -9.69455,-1.834423 -3.31266,-1.22156 -6.1895,-2.82974 -8.63259,-4.824278 l 6.36653,-8.873236 c 2.18587,1.674569 4.27568,2.928412 6.2702,3.763614 1.99217,0.836243 4.01715,1.251761 6.07598,1.251761 2.12209,0 3.66699,-0.351212 4.63079,-1.058321 0.96615,-0.709713 1.44727,-1.70477 1.44727,-2.990636 0,-0.775061 -0.27284,-1.463165 -0.82009,-2.076289 -0.54777,-0.608697 -1.28585,-1.170011 -2.2179,-1.685503 -0.93386,-0.515232 -1.97733,-0.982039 -3.13458,-1.401983 -1.15932,-0.416559 -2.34859,-0.882585 -3.5704,-1.398598 -1.48033,-0.576674 -2.95624,-1.253844 -4.43657,-2.022656 -1.48034,-0.776102 -2.83076,-1.720651 -4.05231,-2.846923 -1.22155,-1.125492 -2.21789,-2.44208 -2.98956,-3.95419 -0.77167,-1.514194 -1.15699,-3.265826 -1.15699,-5.25724 0,-2.186677 0.43374,-4.211676 1.302,-6.079685 0.86748,-1.86228 2.10621,-3.437656 3.71333,-4.724824 1.60712,-1.286648 3.53708,-2.298888 5.78726,-3.038541 2.24992,-0.739132 4.75967,-1.107267 7.52481,-1.107267 3.66595,0 6.88098,0.622496 9.64404,1.877381 2.76749,1.253844 5.17753,2.652963 7.23635,4.198919 l -6.36679,8.484794 c -1.73469,-1.285606 -3.44049,-2.280142 -5.11087,-2.991157 -1.67351,-0.704245 -3.34599,-1.060143 -5.01637,-1.060143 -3.60269,0 -5.40169,1.254885 -5.40169,3.765697 0,0.770114 0.25541,1.430881 0.77193,1.977876 0.51315,0.544911 1.20437,1.045824 2.07393,1.493105 0.86617,0.450405 1.86461,0.880763 2.98957,1.301227 1.12496,0.419684 2.29938,0.853426 3.52197,1.304352 1.54256,0.577976 3.06897,1.237181 4.58159,1.976314 1.50923,0.739132 2.89298,1.658166 4.14681,2.748511 1.25383,1.094509 2.2671,2.428801 3.03799,4.002615 0.77193,1.576937 1.15698,3.458744 1.15698,5.644379 0,2.185636 -0.41837,4.211416 -1.25357,6.077081 -0.83519,1.864624 -2.08876,3.489727 -3.76149,4.871402 -1.67247,1.383498 -3.73026,2.477487 -6.17231,3.281447 -2.44596,0.802918 -5.27568,1.205418 -8.4907,1.205418 z" />
    <path d="m 659.0883,92.804943 c -3.41028,0 -6.59303,-0.563396 -9.55057,-1.688367 -2.95963,-1.127053 -5.5316,-2.767516 -7.71825,-4.920868 -2.18562,-2.153352 -3.89011,-4.772469 -5.11062,-7.862038 -1.22259,-3.086184 -1.83258,-6.62017 -1.83258,-10.610809 0,-3.85734 0.64201,-7.345244 1.92917,-10.466315 1.28507,-3.117426 2.97343,-5.754508 5.06349,-7.910984 2.08981,-2.151269 4.48578,-3.808134 7.18663,-4.96747 2.70084,-1.156213 5.49827,-1.732106 8.39229,-1.732106 3.4082,0 6.38189,0.575893 8.92157,1.732106 2.54099,1.159336 4.66308,2.766735 6.36679,4.82584 1.70476,2.059105 2.97473,4.485043 3.81096,7.280938 0.8352,2.799539 1.25358,5.836517 1.25358,9.11484 0,1.28821 -0.0643,2.508208 -0.19318,3.667545 -0.12861,1.155952 -0.25644,2.024479 -0.38532,2.603236 h -28.64964 c 0.64202,3.474886 2.07497,6.029697 4.29261,7.672243 2.21893,1.635776 4.93592,2.457961 8.15094,2.457961 3.40847,0 6.85,-1.060404 10.32251,-3.184857 l 4.72634,8.585809 c -2.44622,1.671445 -5.16112,2.991678 -8.15095,3.954451 -2.99139,0.967199 -5.93279,1.448845 -8.82577,1.448845 z M 648.47707,62.514306 h 17.26779 c 0,-2.699825 -0.6139,-4.888584 -1.83467,-6.559508 -1.2205,-1.673007 -3.27933,-2.50925 -6.17335,-2.50925 -2.252,0 -4.2283,0.742778 -5.93305,2.21896 -1.70449,1.482951 -2.81227,3.764135 -3.32672,6.849798 z" />
    <path d="m 701.72327,92.804943 c -3.1515,0 -6.38293,-0.612863 -9.69428,-1.834423 -3.31396,-1.22156 -6.1895,-2.82974 -8.63494,-4.824278 l 6.36888,-8.873236 c 2.18353,1.674569 4.27568,2.928412 6.2689,3.763614 1.99243,0.836243 4.01819,1.251761 6.07702,1.251761 2.12209,0 3.66595,-0.351212 4.62975,-1.058321 0.96511,-0.709713 1.44727,-1.70477 1.44727,-2.990636 0,-0.775061 -0.27492,-1.463165 -0.82009,-2.076289 -0.54647,-0.608697 -1.2869,-1.170011 -2.2179,-1.685503 -0.93386,-0.515232 -1.97734,-0.982039 -3.13562,-1.401983 -1.15828,-0.416559 -2.34781,-0.882585 -3.56936,-1.398598 -1.48033,-0.576674 -2.95832,-1.253844 -4.43762,-2.022656 -1.47929,-0.776102 -2.82867,-1.720651 -4.05022,-2.846923 -1.22285,-1.125492 -2.21894,-2.44208 -2.99061,-3.95419 -0.77192,-1.514194 -1.15724,-3.265826 -1.15724,-5.25724 0,-2.186677 0.43478,-4.211676 1.30226,-6.079685 0.86826,-1.86228 2.1049,-3.437656 3.71411,-4.724824 1.60608,-1.286648 3.53499,-2.298888 5.78726,-3.038541 2.25018,-0.739132 4.75758,-1.107267 7.52377,-1.107267 3.66595,0 6.87993,0.622496 9.64742,1.877381 2.76307,1.253844 5.17519,2.652963 7.23401,4.198919 l -6.36679,8.484794 c -1.73573,-1.285606 -3.43945,-2.280142 -5.11296,-2.991157 -1.67247,-0.704245 -3.3439,-1.060143 -5.01637,-1.060143 -3.60138,0 -5.40064,1.254885 -5.40064,3.765697 0,0.770114 0.2554,1.430881 0.77089,1.977876 0.51523,0.544911 1.20645,1.045824 2.07393,1.493105 0.86721,0.450405 1.8646,0.880763 2.9906,1.301227 1.12392,0.419684 2.29835,0.853426 3.52094,1.304352 1.54464,0.577976 3.06897,1.237181 4.58159,1.976314 1.50923,0.739132 2.89402,1.658166 4.14785,2.748511 1.25383,1.094509 2.26606,2.428801 3.03799,4.002615 0.77297,1.576937 1.15933,3.458744 1.15933,5.644379 0,2.185636 -0.42072,4.211416 -1.25384,6.077081 -0.83727,1.864624 -2.09084,3.489727 -3.76227,4.871402 -1.67377,1.383498 -3.7313,2.477487 -6.17466,3.281447 -2.4457,0.802918 -5.27463,1.205418 -8.48836,1.205418 z" />
    <path d="m 742.42803,92.804943 c -2.18665,0 -4.16399,-0.370217 -5.93305,-1.111172 -1.76802,-0.73731 -3.26345,-1.769075 -4.48396,-3.086965 -1.22259,-1.31815 -2.17181,-2.844841 -2.84585,-4.582935 -0.67534,-1.735751 -1.01353,-3.631356 -1.01353,-5.690461 0,-5.015115 2.12313,-8.938584 6.36679,-11.768844 4.24444,-2.827658 11.09313,-4.726648 20.54607,-5.68864 -0.12991,-2.124973 -0.75552,-3.81308 -1.88075,-5.067184 -1.1273,-1.253323 -3.00805,-1.878944 -5.64224,-1.878944 -2.05987,0 -4.10177,0.385839 -6.12519,1.155432 -2.02654,0.77402 -4.19705,1.836246 -6.51154,3.183816 l -5.11322,-9.355924 c 3.08616,-1.864104 6.31863,-3.375954 9.69351,-4.535291 3.37722,-1.156212 6.96116,-1.732106 10.75598,-1.732106 6.17335,0 10.88277,1.750331 14.13086,5.254637 3.24731,3.50769 4.87162,8.954985 4.87162,16.35282 v 27.391383 h -11.57425 l -0.96511,-4.918785 h -0.38636 c -2.05882,1.801359 -4.21345,3.263482 -6.46207,4.390536 -2.25044,1.125231 -4.72817,1.688627 -7.42771,1.688627 z m 4.82319,-10.997688 c 1.60817,0 2.99061,-0.34991 4.14786,-1.062747 1.15828,-0.708412 2.37905,-1.702427 3.66594,-2.990376 v -8.390548 c -5.01532,0.708672 -8.48809,1.736793 -10.41805,3.087226 -1.92891,1.348351 -2.89298,2.958353 -2.89298,4.821935 0,1.542572 0.49701,2.685767 1.49544,3.42542 0.99478,0.739914 2.32932,1.10909 4.00179,1.10909 z" />
    <path d="M 781.20596,91.644565 V 43.799334 h 11.57634 l 0.9651,6.175754 h 0.38428 c 1.99243,-1.991675 4.11478,-3.714148 6.36679,-5.161171 2.25018,-1.445461 4.95206,-2.167931 8.10148,-2.167931 3.40925,0 6.15825,0.688624 8.24858,2.07082 2.08876,1.387404 3.74535,3.362155 4.96794,5.932587 2.12105,-2.183031 4.35717,-4.065359 6.70498,-5.642297 2.34651,-1.575896 5.12676,-2.36111 8.34283,-2.36111 5.1442,0 8.92366,1.717526 11.33369,5.159088 2.41212,3.441041 3.61779,8.149984 3.61779,14.131777 V 91.644565 H 837.63621 V 63.769192 c 0,-3.473845 -0.46706,-5.85292 -1.39859,-7.138006 -0.93178,-1.284565 -2.42825,-1.931273 -4.48604,-1.931273 -2.37879,0 -5.11296,1.545435 -8.19911,4.63214 V 91.644565 H 809.37318 V 63.769192 c 0,-3.473845 -0.46706,-5.85292 -1.3978,-7.138006 -0.93387,-1.284565 -2.428,-1.931273 -4.48578,-1.931273 -2.44545,0 -5.14525,1.545435 -8.10357,4.63214 v 32.312512 z" />
    <path d="m 885.28807,92.804943 c -3.41029,0 -6.59303,-0.563396 -9.54953,-1.688367 -2.95963,-1.127053 -5.53264,-2.767516 -7.71826,-4.920868 -2.18665,-2.153352 -3.89036,-4.772469 -5.11321,-7.862038 -1.22051,-3.086184 -1.83129,-6.62017 -1.83129,-10.610809 0,-3.85734 0.64202,-7.345244 1.92918,-10.466315 1.28377,-3.117426 2.97342,-5.754508 5.06349,-7.910984 2.08876,-2.151269 4.48578,-3.808134 7.18662,-4.96747 2.70084,-1.156213 5.49827,-1.732106 8.39229,-1.732106 3.40716,0 6.38189,0.575893 8.92262,1.732106 2.53969,1.159336 4.66073,2.766735 6.36549,4.82584 1.70241,2.059105 2.97342,4.485043 3.81096,7.280938 0.83519,2.799539 1.25357,5.836517 1.25357,9.11484 0,1.28821 -0.0653,2.508208 -0.19318,3.667545 -0.12991,1.155952 -0.25748,2.024479 -0.38531,2.603236 h -28.64912 c 0.64201,3.474886 2.07392,6.029697 4.2926,7.672243 2.21894,1.635776 4.93488,2.457961 8.15225,2.457961 3.40821,0 6.84765,-1.060404 10.32042,-3.184857 l 4.72635,8.585809 c -2.4444,1.671445 -5.16008,2.991678 -8.15095,3.954451 -2.98957,0.967199 -5.93097,1.448845 -8.82499,1.448845 z M 874.67684,62.514306 h 17.26674 c 0,-2.699825 -0.61285,-4.888584 -1.83362,-6.559508 -1.22259,-1.673007 -3.27933,-2.50925 -6.17465,-2.50925 -2.25097,0 -4.227,0.742778 -5.93175,2.21896 -1.70372,1.482951 -2.81227,3.764135 -3.32672,6.849798 z" />
  </g>
</svg>
