<svg xmlns="http://www.w3.org/2000/svg" width="256" height="128" viewBox="0 0 256 128">
  <g fill="#2b8c67">
    <path d="m 69.788585,100.32897 c -0.525751,-0.651214 -1.03145,-1.316799 -1.526658,-1.993743 -1.45788,-1.991423 -2.773771,-4.102701 -3.947675,-6.302771 h -5.027154 c -13.198318,0 -23.936684,-11.231482 -23.936684,-25.034658 0,-13.80109 10.738133,-25.030718 23.936684,-25.030718 h 11.237537 21.357592 c 2.423116,0 4.761364,0.381129 6.967185,1.084502 1.529688,0.487771 2.985468,1.149415 4.368978,1.930915 1.42174,0.80306 2.76537,1.740814 3.99663,2.817202 5.25354,4.594876 8.60319,11.492291 8.60319,19.198099 0,6.414744 -2.33009,12.260809 -6.13997,16.691086 0.21799,0.08207 0.42923,0.178741 0.65188,0.249681 1.56,0.497044 3.21466,0.767126 4.92877,0.767126 h 15.10827 1.29048 c 2.25268,-5.435957 3.51145,-11.420424 3.51145,-17.707893 0,-10.206561 -3.29392,-19.620262 -8.82328,-27.177235 -0.42969,-0.587458 -0.86778,-1.16657 -1.32312,-1.729454 -0.33014,-0.40663 -0.68289,-0.794946 -1.02562,-1.190216 -0.51596,-0.592559 -1.04684,-1.169816 -1.59217,-1.734555 -1.6395,-1.690506 -3.39511,-3.263939 -5.27429,-4.673003 -7.11221,-5.334184 -15.82847,-8.492408 -25.248149,-8.492408 H 89.360724 59.287331 C 35.41896,22.000927 16,42.185001 16,66.998029 16,91.811058 35.41896,112 59.287331,112 h 23.94228 c -1.496116,-0.89765 -2.9484,-1.86507 -4.342629,-2.90947 -3.367135,-2.52556 -6.431176,-5.46285 -9.098397,-8.76156 z" />
    <path d="M 240,51.147792 H 229.02989 V 37.101426 H 203.91604 V 51.148024 H 183.59129 C 177.41075,34.135389 161.58764,22 143.08543,22 h -23.94228 c 1.49611,0.894401 2.9484,1.862061 4.34216,2.906456 3.3676,2.526487 6.43117,5.463777 9.09956,8.76249 0.52575,0.650052 1.03029,1.316565 1.52549,1.994436 1.45905,1.990264 2.77471,4.100847 3.94768,6.302771 h 5.02739 c 13.19878,0 23.93551,11.230555 23.93551,25.033731 0,13.80109 -10.73673,25.030718 -23.93551,25.030718 h -11.23708 -21.35829 c -2.42265,0 -4.76113,-0.382057 -6.96671,-1.084503 -1.53016,-0.48893 -2.98571,-1.150573 -4.369679,-1.930914 -1.421741,-0.80306 -2.764911,-1.741973 -3.996636,-2.818129 -5.253075,-4.594645 -8.603189,-11.492292 -8.603189,-19.197172 0,-6.414744 2.330788,-12.261736 6.139972,-16.692245 -0.218693,-0.08114 -0.429227,-0.177582 -0.651884,-0.24945 C 90.481936,49.561145 88.827746,49.29199 87.113636,49.29199 H 72.005363 70.714885 c -2.25315,5.437116 -3.51192,11.420656 -3.51192,17.707894 0,10.205402 3.293692,19.620262 8.823748,27.176075 0.42876,0.587458 0.86778,1.166802 1.323119,1.730613 0.329439,0.408949 0.681727,0.794946 1.025155,1.18929 0.516425,0.593717 1.046838,1.170743 1.592639,1.736641 1.639036,1.690507 3.395113,3.262777 5.273825,4.671847 7.112203,5.33348 15.828699,8.49148 25.248379,8.49148 h 2.52197 30.07339 c 18.50362,0 34.32649,-12.134233 40.50564,-29.147795 H 240 Z" />
  </g>
</svg>
