<?xml version="1.0" encoding="utf-8"?>
<!-- Generator: Adobe Illustrator 16.0.0, SVG Export Plug-In . SVG Version: 6.00 Build 0)  -->
<!DOCTYPE svg PUBLIC "-//W3C//DTD SVG 1.1//EN" "http://www.w3.org/Graphics/SVG/1.1/DTD/svg11.dtd">
<svg version="1.1" id="Layer_1" xmlns="http://www.w3.org/2000/svg" xmlns:xlink="http://www.w3.org/1999/xlink" x="0px" y="0px"
	 width="960.76px" height="388.215px" viewBox="0 0 960.76 388.215" enable-background="new 0 0 960.76 388.215"
	 xml:space="preserve">
<g>
	<path fill="#094632" d="M960.76,125.729h-47.052V65.14H805.992v60.59h-87.175C692.308,52.346,624.441,0,545.083,0H442.392
		c6.417,3.858,12.646,8.032,18.624,12.537c14.444,10.898,27.584,23.568,39.029,37.797c2.255,2.804,4.419,5.679,6.543,8.603
		c6.258,8.585,11.901,17.689,16.932,27.187h21.563c56.611,0,102.662,48.443,102.662,107.983c0,59.531-46.051,107.97-102.662,107.97
		h-48.197h-91.608c-10.391,0-20.421-1.648-29.881-4.678c-6.563-2.109-12.806-4.963-18.742-8.329
		c-6.098-3.464-11.859-7.514-17.142-12.156c-22.531-19.819-36.9-49.572-36.9-82.807c0-27.67,9.997-52.891,26.335-72.002
		c-0.938-0.35-1.841-0.766-2.796-1.076c-6.691-2.144-13.786-3.305-21.138-3.305h-64.801h-5.535
		c-9.664,23.453-15.063,49.263-15.063,76.383c0,44.021,14.127,84.632,37.846,117.224c1.839,2.534,3.722,5.033,5.675,7.465
		c1.413,1.764,2.924,3.429,4.397,5.13c2.215,2.561,4.49,5.05,6.831,7.491c7.03,7.292,14.562,14.074,22.62,20.152
		c30.505,23.006,67.891,36.628,108.293,36.628h10.817h128.988c79.364,0,147.23-52.341,173.733-125.729H960.76V125.729z"/>
	<path fill="#094632" d="M230.705,337.872c-2.255-2.809-4.424-5.68-6.548-8.6c-6.253-8.59-11.897-17.697-16.932-27.187h-21.562
		c-56.609,0-102.667-48.447-102.667-107.987c0-59.531,46.057-107.97,102.667-107.97h48.199h91.605
		c10.393,0,20.422,1.644,29.883,4.678c6.561,2.104,12.805,4.958,18.739,8.329c6.098,3.464,11.861,7.509,17.142,12.152
		c22.533,19.82,36.9,49.572,36.9,82.811c0,27.67-9.994,52.887-26.335,71.997c0.935,0.354,1.841,0.771,2.796,1.077
		c6.691,2.144,13.788,3.309,21.14,3.309h64.801h5.535c9.662-23.448,15.061-49.262,15.061-76.383
		c0-44.026-14.128-84.632-37.844-117.229c-1.843-2.534-3.722-5.032-5.675-7.46c-1.416-1.754-2.929-3.429-4.399-5.134
		c-2.213-2.556-4.49-5.046-6.829-7.482c-7.032-7.292-14.562-14.079-22.622-20.157C403.255,13.627,365.87,0.004,325.468,0.004
		h-10.816H185.664C83.29,0.004,0,87.068,0,194.099s83.29,194.116,185.664,194.116h102.691c-6.417-3.872-12.646-8.045-18.626-12.55
		C255.287,364.771,242.145,352.101,230.705,337.872z"/>
</g>
</svg>
