<svg xmlns="http://www.w3.org/2000/svg" width="512" height="192" viewBox="0 0 512 192">
  <g fill="#094632">
    <path d="m 197.78858,100.32897 c -0.52575,-0.651214 -1.03145,-1.316799 -1.52665,-1.993743 -1.45788,-1.991423 -2.77377,-4.102701 -3.94768,-6.302771 h -5.02715 c -13.19832,0 -23.93669,-11.231482 -23.93669,-25.034658 0,-13.80109 10.73814,-25.030718 23.93669,-25.030718 h 11.23753 21.3576 c 2.42311,0 4.76136,0.381129 6.96718,1.084502 1.52969,0.487771 2.98547,1.149415 4.36898,1.930915 1.42174,0.80306 2.76537,1.740814 3.99663,2.817202 5.25354,4.594876 8.60319,11.492291 8.60319,19.198099 0,6.414744 -2.33009,12.260809 -6.13997,16.691086 0.21799,0.08207 0.42923,0.178741 0.65188,0.249681 1.56,0.497044 3.21466,0.767126 4.92877,0.767126 h 15.10827 1.29048 c 2.25268,-5.435957 3.51145,-11.420424 3.51145,-17.707893 0,-10.206561 -3.29392,-19.620262 -8.82328,-27.177235 -0.42969,-0.587458 -0.86778,-1.16657 -1.32312,-1.729454 -0.33014,-0.40663 -0.68289,-0.794946 -1.02562,-1.190216 -0.51596,-0.592559 -1.04684,-1.169816 -1.59217,-1.734555 -1.6395,-1.690506 -3.39511,-3.263939 -5.27429,-4.673003 -7.11221,-5.334184 -15.82847,-8.492408 -25.24815,-8.492408 h -2.52174 -30.07339 C 163.41896,22.000927 144,42.185001 144,66.998029 144,91.811058 163.41896,112 187.28733,112 h 23.94228 c -1.49612,-0.89765 -2.9484,-1.86507 -4.34263,-2.90947 -3.36713,-2.52556 -6.43117,-5.46285 -9.0984,-8.76156 z" />
    <path d="M 368,51.147792 H 357.02989 V 37.101426 H 331.91604 V 51.148024 H 311.59129 C 305.41075,34.135389 289.58764,22 271.08543,22 h -23.94228 c 1.49611,0.894401 2.9484,1.862061 4.34216,2.906456 3.3676,2.526487 6.43117,5.463777 9.09956,8.76249 0.52575,0.650052 1.03029,1.316565 1.52549,1.994436 1.45905,1.990264 2.77471,4.100847 3.94768,6.302771 h 5.02739 c 13.19878,0 23.93551,11.230555 23.93551,25.033731 0,13.80109 -10.73673,25.030718 -23.93551,25.030718 h -11.23708 -21.35829 c -2.42265,0 -4.76113,-0.382057 -6.96671,-1.084503 -1.53016,-0.48893 -2.98571,-1.150573 -4.36968,-1.930914 -1.42174,-0.80306 -2.76491,-1.741973 -3.99664,-2.818129 -5.25307,-4.594645 -8.60318,-11.492292 -8.60318,-19.197172 0,-6.414744 2.33078,-12.261736 6.13997,-16.692245 -0.2187,-0.08114 -0.42923,-0.177582 -0.65189,-0.24945 -1.55999,-0.497044 -3.21418,-0.766199 -4.92829,-0.766199 h -15.10828 -1.29048 c -2.25315,5.437116 -3.51192,11.420656 -3.51192,17.707894 0,10.205402 3.2937,19.620262 8.82375,27.176075 0.42876,0.587458 0.86778,1.166802 1.32312,1.730613 0.32944,0.408949 0.68173,0.794946 1.02516,1.18929 0.51642,0.593717 1.04683,1.170743 1.59264,1.736641 1.63903,1.690507 3.39511,3.262777 5.27382,4.671847 7.1122,5.33348 15.8287,8.49148 25.24838,8.49148 h 2.52197 30.07339 c 18.50362,0 34.32649,-12.134233 40.50564,-29.147795 H 368 Z" />
  </g>
  <g fill="#094632">
    <path d="m 30.802545,169.49035 c -2.236997,0 -4.265787,-0.44044 -6.088532,-1.31364 -1.823327,-0.8732 -3.379215,-2.12524 -4.666469,-3.75553 -1.288827,-1.62773 -2.28502,-3.60753 -2.98975,-5.94118 -0.704739,-2.33365 -1.057792,-4.98218 -1.057792,-7.94953 0,-2.9638 0.42528,-5.6143 1.27643,-7.94894 0.850363,-2.33168 1.968567,-4.31247 3.353635,-5.94256 1.38565,-1.62616 2.98975,-2.87859 4.813085,-3.75494 1.822934,-0.87399 3.682673,-1.30931 5.577842,-1.30931 2.042366,0 3.719675,0.33673 5.031722,1.01746 1.312056,0.6825 2.59931,1.6045 3.864522,2.77231 l -0.437873,-5.54207 v -12.3236 h 10.718793 v 51.1142 H 41.447932 L 40.7188,165.04189 h -0.291658 c -1.264623,1.26523 -2.746908,2.32007 -4.448028,3.17202 -1.701906,0.85057 -3.427427,1.27644 -5.176569,1.27644 z m 2.770325,-8.74971 c 1.167602,0 2.223617,-0.24502 3.172777,-0.73131 0.947778,-0.48433 1.858954,-1.33548 2.733718,-2.55033 v -14.8015 c -0.972382,-0.87674 -1.969361,-1.4821 -2.989357,-1.82453 -1.021191,-0.34066 -2.017179,-0.51247 -2.990544,-0.51247 -1.701316,0 -3.207216,0.81672 -4.520247,2.44445 -1.312055,1.62891 -1.968574,4.16881 -1.968574,7.61949 0,3.59927 0.570913,6.22439 1.713721,7.87632 1.142211,1.65214 2.758118,2.47988 4.848506,2.47988 z" />
    <path d="m 57.561743,182.90776 c -1.506882,0 -2.757732,-0.10076 -3.754908,-0.29362 -0.995399,-0.19306 -1.859346,-0.43828 -2.588477,-0.73033 l 1.895554,-7.87277 c 0.486879,0.14445 0.948563,0.2645 1.385855,0.36506 0.438266,0.0943 0.922975,0.14445 1.458663,0.14445 1.408282,0 2.39365,-0.46425 2.952363,-1.38685 0.558705,-0.92259 0.839145,-2.4043 0.839145,-4.44767 v -36.23929 h 10.719187 v 35.94822 c 0,1.99378 -0.207428,3.86515 -0.619919,5.61608 -0.413865,1.74876 -1.118989,3.27986 -2.114985,4.59291 -0.996783,1.31462 -2.322014,2.35648 -3.974332,3.13541 -1.652909,0.77559 -3.718693,1.1684 -6.198146,1.1684 z m 7.583796,-55.78327 c -1.798927,0 -3.280615,-0.52172 -4.447824,-1.56692 -1.166422,-1.04442 -1.749535,-2.39545 -1.749535,-4.04778 0,-1.65056 0.582916,-2.99056 1.749535,-4.01058 1.167209,-1.01863 2.648897,-1.53071 4.447824,-1.53071 1.797755,0 3.281016,0.51208 4.448421,1.53071 1.166816,1.02002 1.749536,2.36022 1.749536,4.01058 0,1.65233 -0.582524,3.00356 -1.749536,4.04778 -1.167405,1.04501 -2.650666,1.56692 -4.448421,1.56692 z" />
    <path d="m 89.061792,169.49035 c -1.653294,0 -3.147583,-0.27985 -4.484432,-0.83994 -1.337242,-0.55734 -2.467646,-1.33725 -3.390236,-2.33345 -0.924163,-0.9964 -1.640701,-2.15044 -2.150997,-3.46427 -0.510297,-1.31206 -0.765937,-2.74496 -0.765937,-4.30145 0,-3.79095 1.604493,-6.75673 4.812102,-8.89613 3.208593,-2.13745 8.385752,-3.5729 15.530888,-4.30008 -0.09663,-1.60628 -0.571298,-2.88233 -1.420876,-3.83031 -0.851149,-0.9474 -2.273212,-1.42031 -4.26658,-1.42031 -1.555487,0 -3.097988,0.29166 -4.629475,0.8734 -1.531283,0.58509 -3.171591,1.38803 -4.922306,2.40667 l -3.864128,-7.0722 c 2.332845,-1.40909 4.775894,-2.5519 7.327771,-3.42825 2.551876,-0.87399 5.261782,-1.30931 8.131094,-1.30931 4.666084,0 8.22675,1.32309 10.6816,3.97201 2.45388,2.65148 3.68189,6.76912 3.68189,12.36119 v 20.70529 h -8.74924 l -0.729135,-3.71813 h -0.291651 c -1.556281,1.36166 -3.184388,2.46688 -4.885508,3.31883 -1.701906,0.85057 -3.57247,1.27644 -5.614844,1.27644 z m 3.646277,-8.31321 c 1.214241,0 2.260611,-0.2645 3.134596,-0.80334 0.875551,-0.53549 1.798141,-1.28687 2.770711,-2.26044 v -6.34246 c -3.791108,0.53569 -6.415997,1.31285 -7.873685,2.33365 -1.459057,1.01923 -2.187999,2.23623 -2.187999,3.64493 0,1.16604 0.376086,2.03018 1.129822,2.58929 0.75295,0.55931 1.761532,0.83837 3.026555,0.83837 z" />
    <path d="m 118.37385,168.61321 v -36.16647 h 8.75003 l 0.72913,4.5937 h 0.29127 c 1.55509,-1.45612 3.2568,-2.73296 5.10395,-3.82677 1.84636,-1.09263 4.01015,-1.63875 6.4898,-1.63875 3.93674,0 6.79228,1.28707 8.56759,3.86081 1.77296,2.5771 2.66071,6.15118 2.66071,10.72126 v 22.45622 h -10.7182 v -21.07114 c 0,-2.6259 -0.35305,-4.42426 -1.0574,-5.39566 -0.70512,-0.97101 -1.83592,-1.45986 -3.39023,-1.45986 -1.36125,0 -2.52846,0.30523 -3.50005,0.91118 -0.97238,0.6089 -2.04158,1.47029 -3.2084,2.59028 v 24.4252 z" />
    <path d="m 172.98781,184 c -2.14056,0 -4.12055,-0.1844 -5.9429,-0.54769 -1.82431,-0.36585 -3.42664,-0.91295 -4.81269,-1.63994 -1.38506,-0.72953 -2.46764,-1.67574 -3.2448,-2.84316 -0.77736,-1.16702 -1.16701,-2.55131 -1.16701,-4.15621 0,-2.91638 1.72513,-5.34922 5.17716,-7.29183 v -0.29047 c -0.97297,-0.63311 -1.77551,-1.43467 -2.40605,-2.40844 -0.63212,-0.97061 -0.94857,-2.21183 -0.94857,-3.71814 0,-1.31285 0.38947,-2.56252 1.16701,-3.75454 0.77716,-1.19202 1.74954,-2.19983 2.91694,-3.02737 v -0.29303 c -1.26501,-0.87065 -2.39621,-2.12426 -3.39082,-3.75416 -0.99639,-1.62812 -1.4939,-3.51189 -1.4939,-5.64913 0,-2.18901 0.41131,-4.09422 1.23904,-5.72569 0.82596,-1.62852 1.93196,-2.9886 3.31703,-4.08281 1.38604,-1.09499 2.97716,-1.90561 4.77628,-2.44366 1.79913,-0.53313 3.6695,-0.79881 5.61504,-0.79881 2.13899,0 4.01015,0.28929 5.61346,0.87182 h 13.19805 v 7.80331 h -5.76047 c 0.34007,0.5351 0.61972,1.21563 0.83993,2.0412 0.21806,0.82656 0.32767,1.72633 0.32767,2.69832 0,2.09041 -0.36585,3.90156 -1.09459,5.43305 -0.72874,1.53071 -1.7389,2.79574 -3.02596,3.78899 -1.28765,0.99797 -2.79532,1.7399 -4.52044,2.22659 -1.72612,0.4861 -3.58508,0.72777 -5.57804,0.72777 -1.41026,0 -2.86912,-0.24187 -4.376,-0.72777 -0.48531,0.38612 -0.82675,0.77657 -1.02,1.16525 -0.19464,0.38868 -0.29127,0.89898 -0.29127,1.5311 0,0.92339 0.40009,1.60589 1.20244,2.04239 0.80254,0.4367 2.22421,0.65574 4.265,0.65574 h 5.83348 c 4.47283,0 7.88727,0.71792 10.2453,2.15122 2.35803,1.43545 3.53646,3.78131 3.53646,7.03775 0,1.89459 -0.47389,3.63194 -1.42187,5.21342 -0.94758,1.57833 -2.29624,2.94058 -4.04576,4.0832 -1.75111,1.14006 -3.8659,2.04082 -6.34378,2.69734 C 178.89273,183.67312 176.09722,184 172.98781,184 Z m 1.67652,-6.7091 c 2.43026,0 4.42244,-0.42686 5.97873,-1.27545 1.55548,-0.85117 2.33362,-1.90857 2.33362,-3.17203 0,-1.119 -0.47389,-1.87195 -1.42265,-2.25965 -0.94699,-0.39025 -2.32143,-0.58351 -4.11976,-0.58351 h -3.7187 c -1.26501,0 -2.28403,-0.0366 -3.06316,-0.111 -0.77715,-0.0707 -1.45729,-0.18105 -2.04138,-0.32629 -1.31146,1.16702 -1.96857,2.35491 -1.96857,3.57113 0,1.36323 0.73012,2.39623 2.18839,3.10137 1.45808,0.70336 3.40224,1.05543 5.83348,1.05543 z m -0.87496,-26.6146 c 1.40868,0 2.58848,-0.49692 3.53646,-1.49391 0.94758,-0.99758 1.42166,-2.51667 1.42166,-4.5565 0,-1.89558 -0.47388,-3.34245 -1.42166,-4.34022 -0.94778,-0.99522 -2.12778,-1.49509 -3.53646,-1.49509 -1.41025,0 -2.58828,0.4861 -3.53704,1.45947 -0.94778,0.97297 -1.42167,2.43146 -1.42167,4.37584 0,2.03983 0.47369,3.55892 1.42167,4.5565 0.94876,0.99679 2.12679,1.49391 3.53704,1.49391 z" />
    <path d="m 213.2375,169.49035 c -2.28581,0 -4.49762,-0.42587 -6.63524,-1.27625 -2.14057,-0.85194 -4.02294,-2.07741 -5.65085,-3.68231 -1.62929,-1.6051 -2.92934,-3.58511 -3.90211,-5.94296 -0.97297,-2.35668 -1.45807,-5.04162 -1.45807,-8.05816 0,-3.01281 0.4851,-5.69795 1.45807,-8.05757 0.97277,-2.35688 2.27282,-4.33826 3.90211,-5.94099 1.62771,-1.60628 3.51028,-2.82939 5.65085,-3.68272 2.13743,-0.85037 4.34943,-1.27427 6.63524,-1.27427 2.28344,0 4.48325,0.4239 6.59864,1.27427 2.11538,0.85333 3.98496,2.07663 5.61424,3.68272 1.6285,1.60273 2.92776,3.58411 3.90054,5.94099 0.97277,2.35962 1.45886,5.04476 1.45886,8.05757 0,3.01654 -0.48609,5.70168 -1.45886,8.05816 -0.97278,2.35785 -2.27204,4.33786 -3.90054,5.94296 -1.62928,1.6049 -3.49886,2.83037 -5.61424,3.68231 -2.11519,0.85038 -4.3152,1.27625 -6.59864,1.27625 z m 0,-8.6767 c 2.18682,0 3.83894,-0.92496 4.95871,-2.77193 1.11742,-1.84853 1.67653,-4.35104 1.67653,-7.51125 0,-3.16021 -0.55911,-5.66193 -1.67653,-7.5087 -1.11977,-1.84637 -2.77189,-2.77192 -4.95871,-2.77192 -2.237,0 -3.90211,0.92555 -4.99611,2.77192 -1.09301,1.84677 -1.63913,4.34849 -1.63913,7.5087 0,3.16021 0.54612,5.66272 1.63913,7.51125 1.094,1.84697 2.75911,2.77193 4.99611,2.77193 z" />
    <path d="m 236.56887,153.95852 v -7.58466 h 17.93754 v 7.58466 z" />
    <path d="m 273.02607,169.49035 c -2.38165,0 -4.8249,-0.46327 -7.32816,-1.38665 -2.50406,-0.92338 -4.67868,-2.13902 -6.52543,-3.6467 l 4.8125,-6.70733 c 1.65231,1.26582 3.23201,2.21361 4.73968,2.84494 1.50589,0.63212 3.03658,0.94621 4.59286,0.94621 1.6041,0 2.7719,-0.26548 3.50044,-0.79999 0.73032,-0.53647 1.094,-1.28864 1.094,-2.26064 0,-0.58587 -0.20624,-1.10601 -0.61991,-1.56947 -0.41406,-0.46012 -0.97198,-0.88442 -1.67652,-1.27408 -0.70591,-0.38947 -1.49467,-0.74233 -2.36945,-1.05977 -0.87633,-0.31488 -1.77531,-0.66715 -2.69888,-1.05721 -1.11899,-0.43591 -2.23464,-0.94779 -3.35363,-1.52894 -1.119,-0.58666 -2.13979,-1.30065 -3.06316,-2.152 -0.92338,-0.85077 -1.67652,-1.84598 -2.25983,-2.98899 -0.58331,-1.14459 -0.87457,-2.46866 -0.87457,-3.97398 0,-1.65292 0.32786,-3.18363 0.98419,-4.59567 0.65573,-1.40771 1.59209,-2.59854 2.80692,-3.57152 1.21483,-0.97258 2.6737,-1.73774 4.37463,-2.29685 1.70072,-0.55871 3.59786,-0.83699 5.68804,-0.83699 2.77111,0 5.20137,0.47055 7.28998,1.41912 2.09196,0.94779 3.91373,2.00539 5.47,3.17399 l -4.81269,6.4137 c -1.31126,-0.97179 -2.60069,-1.72357 -3.86334,-2.26103 -1.26501,-0.53234 -2.52925,-0.80137 -3.7919,-0.80137 -2.72329,0 -4.08317,0.94858 -4.08317,2.84651 0,0.58214 0.19307,1.08161 0.58351,1.49509 0.38789,0.4119 0.91039,0.79055 1.5677,1.12865 0.65474,0.34046 1.40947,0.66577 2.25983,0.9836 0.85036,0.31724 1.73811,0.64511 2.66228,0.98597 1.16602,0.43689 2.31985,0.93519 3.46324,1.49391 1.14084,0.55871 2.18682,1.25341 3.1346,2.07761 0.94778,0.82735 1.71371,1.83594 2.29643,3.0256 0.58351,1.19201 0.87457,2.61448 0.87457,4.26662 0,1.65213 -0.31625,3.18343 -0.94758,4.5937 -0.63132,1.40947 -1.5789,2.6379 -2.84333,3.68231 -1.26423,1.0458 -2.81972,1.87275 -4.66568,2.48047 -1.84892,0.60693 -3.98792,0.91118 -6.41817,0.91118 z" />
    <path d="m 310.8699,169.49035 c -2.57785,0 -4.98371,-0.42587 -7.21933,-1.27625 -2.2372,-0.85194 -4.18137,-2.09198 -5.83427,-3.71971 -1.65212,-1.62773 -2.94055,-3.60753 -3.86314,-5.94295 -0.92417,-2.33287 -1.38526,-5.00423 -1.38526,-8.02077 0,-2.91579 0.4853,-5.55231 1.45827,-7.91155 0.97139,-2.35648 2.24763,-4.34986 3.82752,-5.97995 1.5797,-1.62616 3.39082,-2.87859 5.43241,-3.75494 2.04158,-0.87399 4.15617,-1.30931 6.34378,-1.30931 2.57628,0 4.82411,0.43532 6.74386,1.30931 1.92075,0.87635 3.52485,2.09139 4.8127,3.64788 1.28863,1.55649 2.24861,3.39027 2.88072,5.5037 0.63133,2.11618 0.94759,4.41185 0.94759,6.88996 0,0.97376 -0.0486,1.89596 -0.14603,2.77231 -0.0972,0.87379 -0.19384,1.53032 -0.29126,1.9678 h -21.65642 c 0.4853,2.62669 1.56848,4.55788 3.2448,5.79949 1.67731,1.2365 3.73109,1.85799 6.16135,1.85799 2.57648,0 5.17795,-0.80157 7.80284,-2.40745 l 3.57266,6.49006 c -1.84911,1.26345 -3.90132,2.26143 -6.16134,2.98919 -2.26121,0.73111 -4.48463,1.09519 -6.67145,1.09519 z m -8.02109,-22.89686 h 13.05282 c 0,-2.04081 -0.46405,-3.69531 -1.38684,-4.95837 -0.92258,-1.26463 -2.47886,-1.89675 -4.66647,-1.89675 -1.7023,0 -3.19619,0.56147 -4.48482,1.67732 -1.28844,1.12097 -2.12581,2.84533 -2.51469,5.1778 z" />
    <path d="m 343.09791,169.49035 c -2.38224,0 -4.8249,-0.46327 -7.32796,-1.38665 -2.50504,-0.92338 -4.67868,-2.13902 -6.5272,-3.6467 l 4.81427,-6.70733 c 1.65054,1.26582 3.23201,2.21361 4.7387,2.84494 1.50608,0.63212 3.03737,0.94621 4.59365,0.94621 1.6041,0 2.77111,-0.26548 3.49965,-0.79999 0.72953,-0.53647 1.094,-1.28864 1.094,-2.26064 0,-0.58587 -0.20781,-1.10601 -0.61991,-1.56947 -0.41308,-0.46012 -0.97277,-0.88442 -1.67652,-1.27408 -0.70591,-0.38947 -1.49468,-0.74233 -2.37023,-1.05977 -0.87555,-0.31488 -1.77473,-0.66715 -2.6981,-1.05721 -1.11899,-0.43591 -2.23621,-0.94779 -3.35442,-1.52894 -1.11821,-0.58666 -2.13821,-1.30065 -3.06159,-2.152 -0.92436,-0.85077 -1.67731,-1.84598 -2.26062,-2.98899 -0.5835,-1.14459 -0.87476,-2.46866 -0.87476,-3.97398 0,-1.65292 0.32865,-3.18363 0.98438,-4.59567 0.65633,-1.40771 1.59111,-2.59854 2.80752,-3.57152 1.21405,-0.97258 2.67212,-1.73774 4.37462,-2.29685 1.70093,-0.55871 3.59628,-0.83699 5.68726,-0.83699 2.77111,0 5.20058,0.47055 7.29254,1.41912 2.08862,0.94779 3.91195,2.00539 5.46823,3.17399 l -4.81269,6.4137 c -1.31205,-0.97179 -2.5999,-1.72357 -3.86492,-2.26103 -1.26423,-0.53234 -2.52767,-0.80137 -3.7919,-0.80137 -2.7223,0 -4.08237,0.94858 -4.08237,2.84651 0,0.58214 0.19305,1.08161 0.58272,1.49509 0.38946,0.4119 0.91196,0.79055 1.56769,1.12865 0.65553,0.34046 1.40946,0.66577 2.26061,0.9836 0.84958,0.31724 1.73734,0.64511 2.6615,0.98597 1.1676,0.43689 2.31985,0.93519 3.46325,1.49391 1.14083,0.55871 2.1876,1.25341 3.13538,2.07761 0.94778,0.82735 1.71293,1.83594 2.29644,3.0256 0.58429,1.19201 0.87634,2.61448 0.87634,4.26662 0,1.65213 -0.31803,3.18343 -0.94779,4.5937 -0.63289,1.40947 -1.58047,2.6379 -2.84392,3.68231 -1.26521,1.0458 -2.82051,1.87275 -4.66746,2.48047 -1.84871,0.60693 -3.98712,0.91118 -6.41639,0.91118 z" />
    <path d="m 373.86686,169.49035 c -1.6529,0 -3.14758,-0.27985 -4.48483,-0.83994 -1.33645,-0.55734 -2.46686,-1.33725 -3.38945,-2.33345 -0.92416,-0.9964 -1.64168,-2.15044 -2.15119,-3.46427 -0.51049,-1.31206 -0.76613,-2.74496 -0.76613,-4.30145 0,-3.79095 1.60488,-6.75673 4.81269,-8.89613 3.20839,-2.13745 8.38536,-3.5729 15.53089,-4.30008 -0.0982,-1.60628 -0.57111,-2.88233 -1.42167,-3.83031 -0.85214,-0.9474 -2.2738,-1.42031 -4.265,-1.42031 -1.55707,0 -3.10055,0.29166 -4.63007,0.8734 -1.53187,0.58509 -3.17257,1.38803 -4.92211,2.40667 l -3.86511,-7.0722 c 2.33285,-1.40909 4.77629,-2.5519 7.32738,-3.42825 2.55286,-0.87399 5.26198,-1.30931 8.1305,-1.30931 4.66647,0 8.22635,1.32309 10.6816,3.97201 2.45466,2.65148 3.68248,6.76912 3.68248,12.36119 v 20.70529 h -8.74904 l -0.72953,-3.71813 h -0.29205 c -1.55627,1.36166 -3.18497,2.46688 -4.88471,3.31883 -1.70112,0.85057 -3.57405,1.27644 -5.61465,1.27644 z m 3.64587,-8.31321 c 1.21563,0 2.26062,-0.2645 3.13539,-0.80334 0.87556,-0.53549 1.79834,-1.28687 2.77111,-2.26044 v -6.34246 c -3.79111,0.53569 -6.41619,1.31285 -7.87506,2.33365 -1.45808,1.01923 -2.18682,2.23623 -2.18682,3.64493 0,1.16604 0.37569,2.03018 1.13041,2.58929 0.75196,0.55931 1.76075,0.83837 3.02497,0.83837 z" />
    <path d="m 403.17931,168.61321 v -36.16647 h 8.75062 l 0.72952,4.66829 h 0.29048 c 1.50609,-1.50552 3.11039,-2.80755 4.81269,-3.90136 1.70093,-1.09263 3.74329,-1.63875 6.12396,-1.63875 2.57707,0 4.65505,0.52053 6.23514,1.56534 1.57891,1.04875 2.83114,2.54147 3.7553,4.48448 1.60331,-1.65017 3.29361,-3.07303 5.06833,-4.26505 1.77374,-1.19122 3.87535,-1.78477 6.30639,-1.78477 3.88853,0 6.74544,1.29829 8.5672,3.89978 1.82333,2.6011 2.73471,6.16062 2.73471,10.68229 v 22.45622 h -10.7184 v -21.07114 c 0,-2.6259 -0.35306,-4.42426 -1.05721,-5.39566 -0.70433,-0.97101 -1.83552,-1.45986 -3.39102,-1.45986 -1.79814,0 -3.86491,1.1682 -6.19775,3.50146 v 24.4252 h -10.7182 v -21.07114 c 0,-2.6259 -0.35306,-4.42426 -1.05661,-5.39566 -0.70592,-0.97101 -1.83534,-1.45986 -3.39082,-1.45986 -1.84853,0 -3.88933,1.1682 -6.12554,3.50146 v 24.4252 z" />
    <path d="m 481.85555,169.49035 c -2.57786,0 -4.98371,-0.42587 -7.21854,-1.27625 -2.2372,-0.85194 -4.18216,-2.09198 -5.83428,-3.71971 -1.6529,-1.62773 -2.94074,-3.60753 -3.8651,-5.94295 -0.92259,-2.33287 -1.38428,-5.00423 -1.38428,-8.02077 0,-2.91579 0.4853,-5.55231 1.45827,-7.91155 0.97041,-2.35648 2.24763,-4.34986 3.82752,-5.97995 1.57891,-1.62616 3.39083,-2.87859 5.43241,-3.75494 2.04158,-0.87399 4.15617,-1.30931 6.34378,-1.30931 2.57549,0 4.8241,0.43532 6.74466,1.30931 1.91976,0.87635 3.52307,2.09139 4.8117,3.64788 1.28687,1.55649 2.24763,3.39027 2.88073,5.5037 0.63133,2.11618 0.94758,4.41185 0.94758,6.88996 0,0.97376 -0.0494,1.89596 -0.14602,2.77231 -0.0982,0.87379 -0.19464,1.53032 -0.29126,1.9678 h -21.65603 c 0.4853,2.62669 1.56769,4.55788 3.2448,5.79949 1.67731,1.2365 3.7303,1.85799 6.16233,1.85799 2.57629,0 5.17618,-0.80157 7.80126,-2.40745 l 3.57268,6.49006 c -1.84774,1.26345 -3.90054,2.26143 -6.16135,2.98919 -2.25983,0.73111 -4.48325,1.09519 -6.67086,1.09519 z m -8.02109,-22.89686 h 13.05203 c 0,-2.04081 -0.46326,-3.69531 -1.38605,-4.95837 -0.92416,-1.26463 -2.47886,-1.89675 -4.66745,-1.89675 -1.70152,0 -3.19521,0.56147 -4.48384,1.67732 -1.28785,1.12097 -2.12581,2.84533 -2.51469,5.1778 z" />
  </g>
</svg>
