<?xml version="1.0" encoding="utf-8"?>
<!-- Generator: Adobe Illustrator 16.0.0, SVG Export Plug-In . SVG Version: 6.00 Build 0)  -->
<!DOCTYPE svg PUBLIC "-//W3C//DTD SVG 1.1//EN" "http://www.w3.org/Graphics/SVG/1.1/DTD/svg11.dtd">
<svg version="1.1" id="Layer_1" xmlns="http://www.w3.org/2000/svg" xmlns:xlink="http://www.w3.org/1999/xlink" x="0px" y="0px"
	 width="1833.507px" height="705.102px" viewBox="0 0 1833.507 705.102" enable-background="new 0 0 1833.507 705.102"
	 xml:space="preserve">
<g>
	<g>
		<path fill="#094632" d="M56.543,649.682c-8.545,0-16.296-1.679-23.258-5.02c-6.964-3.331-12.907-8.116-17.824-14.345
			c-4.924-6.215-8.729-13.777-11.42-22.699C1.347,598.705,0,588.591,0,577.263c0-11.322,1.624-21.449,4.875-30.367
			c3.247-8.904,7.52-16.467,12.812-22.699c5.292-6.207,11.418-10.996,18.385-14.341c6.962-3.341,14.065-5.001,21.304-5.001
			c7.801,0,14.207,1.289,19.22,3.885c5.013,2.609,9.93,6.131,14.763,10.588l-1.675-21.167v-47.073h40.945v195.246H97.207
			l-2.786-13.645h-1.112c-4.833,4.832-10.495,8.863-16.991,12.115C69.815,648.056,63.224,649.682,56.543,649.682z M67.126,616.257
			c4.457,0,8.492-0.93,12.116-2.791c3.619-1.852,7.102-5.104,10.441-9.737v-56.541c-3.712-3.349-7.518-5.666-11.416-6.968
			c-3.903-1.303-7.708-1.959-11.423-1.959c-6.499,0-12.251,3.119-17.266,9.339c-5.013,6.22-7.52,15.922-7.52,29.105
			c0,13.742,2.177,23.772,6.545,30.085C52.966,613.103,59.139,616.257,67.126,616.257z"/>
		<path fill="#094632" d="M158.758,700.929c-5.757,0-10.535-0.381-14.344-1.117c-3.801-0.739-7.102-1.674-9.886-2.791l7.238-30.075
			c1.863,0.554,3.624,1.019,5.296,1.399c1.672,0.359,3.526,0.55,5.569,0.55c5.382,0,9.144-1.772,11.281-5.298
			c2.131-3.526,3.203-9.184,3.203-16.985V508.181h40.945v137.314c0,7.619-0.793,14.77-2.368,21.45
			c-1.579,6.681-4.275,12.528-8.078,17.548c-3.808,5.02-8.869,9.002-15.182,11.975C176.119,699.431,168.229,700.929,158.758,700.929
			z M187.726,487.856c-6.871,0-12.533-1.998-16.989-5.99c-4.457-3.986-6.683-9.148-6.683-15.461c0-6.304,2.226-11.42,6.683-15.318
			c4.457-3.891,10.118-5.848,16.989-5.848c6.866,0,12.532,1.957,16.989,5.848c4.459,3.898,6.685,9.015,6.685,15.318
			c0,6.313-2.226,11.475-6.685,15.461C200.258,485.858,194.592,487.856,187.726,487.856z"/>
		<path fill="#094632" d="M279.081,649.682c-6.315,0-12.023-1.067-17.129-3.203c-5.108-2.136-9.425-5.112-12.949-8.913
			c-3.53-3.811-6.266-8.223-8.218-13.237c-1.949-5.015-2.926-10.485-2.926-16.427c0-14.486,6.129-25.813,18.382-33.982
			c12.253-8.174,32.034-13.649,59.325-16.432c-0.37-6.131-2.182-11.004-5.429-14.628c-3.251-3.614-8.683-5.427-16.296-5.427
			c-5.943,0-11.835,1.117-17.685,3.336c-5.848,2.232-12.114,5.303-18.801,9.197l-14.761-27.016
			c8.914-5.387,18.243-9.75,27.992-13.095c9.749-3.341,20.099-5.001,31.059-5.001c17.822,0,31.422,5.055,40.801,15.168
			c9.376,10.132,14.065,25.858,14.065,47.221v79.09h-33.42l-2.787-14.203h-1.114c-5.945,5.205-12.165,9.422-18.661,12.674
			C294.028,648.056,286.882,649.682,279.081,649.682z M293.008,617.927c4.639,0,8.637-1.014,11.975-3.07
			c3.343-2.042,6.871-4.917,10.583-8.629v-24.229c-14.479,2.043-24.507,5.011-30.078,8.914c-5.573,3.894-8.355,8.545-8.355,13.923
			c0,4.452,1.436,7.753,4.315,9.888C284.326,616.859,288.178,617.927,293.008,617.927z"/>
		<path fill="#094632" d="M391.048,646.333V508.181h33.422l2.784,17.548h1.114c5.941-5.56,12.437-10.437,19.495-14.614
			c7.055-4.174,15.319-6.26,24.793-6.26c15.038,0,25.944,4.912,32.725,14.747c6.773,9.844,10.165,23.497,10.165,40.952v85.779
			h-40.943v-80.49c0-10.029-1.349-16.896-4.041-20.609c-2.693-3.712-7.01-5.572-12.949-5.572c-5.201,0-9.658,1.16-13.368,3.473
			c-3.719,2.33-7.799,5.617-12.258,9.896v93.303H391.048z"/>
		<path fill="#094632" d="M599.66,705.102c-8.171,0-15.738-0.7-22.702-2.087c-6.962-1.399-13.088-3.49-18.382-6.264
			c-5.292-2.787-9.425-6.401-12.395-10.862c-2.968-4.457-4.455-9.746-4.455-15.878c0-11.137,6.587-20.432,19.776-27.852v-1.111
			c-3.717-2.415-6.78-5.48-9.19-9.197c-2.417-3.713-3.624-8.448-3.624-14.203c0-5.015,1.486-9.79,4.457-14.344
			c2.968-4.546,6.685-8.4,11.142-11.563v-1.117c-4.831-3.326-9.148-8.115-12.951-14.344c-3.808-6.216-5.71-13.414-5.71-21.574
			c0-8.364,1.577-15.639,4.738-21.867c3.154-6.225,7.381-11.421,12.67-15.604c5.294-4.177,11.374-7.273,18.243-9.329
			c6.869-2.038,14.019-3.052,21.448-3.052c8.169,0,15.319,1.103,21.446,3.326h50.412v29.811h-22.002
			c1.298,2.042,2.364,4.643,3.203,7.792c0.837,3.163,1.254,6.601,1.254,10.313c0,7.982-1.394,14.902-4.18,20.75
			c-2.784,5.848-6.641,10.682-11.558,14.473c-4.922,3.814-10.681,6.646-17.269,8.502c-6.592,1.861-13.696,2.791-21.306,2.791
			c-5.39,0-10.96-0.93-16.715-2.791c-1.854,1.479-3.156,2.969-3.896,4.457c-0.744,1.484-1.111,3.438-1.111,5.848
			c0,3.525,1.528,6.131,4.594,7.801c3.063,1.67,8.495,2.503,16.292,2.503h22.283c17.08,0,30.125,2.747,39.133,8.222
			c9.004,5.48,13.507,14.443,13.507,26.883c0,7.234-1.808,13.875-5.431,19.908c-3.622,6.025-8.771,11.234-15.457,15.603
			c-6.688,4.351-14.763,7.797-24.232,10.3C622.217,703.856,611.541,705.102,599.66,705.102z M606.065,679.474
			c9.283,0,16.894-1.625,22.837-4.864c5.943-3.256,8.914-7.292,8.914-12.12c0-4.275-1.812-7.15-5.432-8.635
			c-3.621-1.492-8.869-2.229-15.735-2.229h-14.205c-4.831,0-8.729-0.141-11.7-0.416c-2.973-0.274-5.569-0.699-7.797-1.258
			c-5.013,4.461-7.522,9.002-7.522,13.645c0,5.209,2.788,9.152,8.357,11.846C589.353,678.136,596.78,679.474,606.065,679.474z
			 M602.723,577.821c5.382,0,9.888-1.904,13.507-5.715c3.622-3.805,5.432-9.604,5.432-17.4c0-7.248-1.81-12.768-5.432-16.578
			c-3.619-3.801-8.125-5.715-13.507-5.715c-5.39,0-9.888,1.861-13.51,5.578c-3.619,3.717-5.431,9.285-5.431,16.715
			c0,7.797,1.812,13.596,5.431,17.4C592.835,575.917,597.333,577.821,602.723,577.821z"/>
		<path fill="#094632" d="M753.407,649.682c-8.731,0-17.177-1.626-25.346-4.878c-8.171-3.252-15.366-7.938-21.585-14.061
			c-6.225-6.136-11.186-13.693-14.9-22.699c-3.717-9.002-5.569-19.262-5.569-30.781c0-11.518,1.852-21.769,5.569-30.779
			c3.714-9.002,8.676-16.577,14.9-22.695c6.22-6.136,13.414-10.814,21.585-14.065c8.169-3.251,16.615-4.868,25.346-4.868
			c8.726,0,17.127,1.617,25.205,4.868s15.222,7.93,21.448,14.065c6.218,6.118,11.184,13.693,14.9,22.695
			c3.71,9.011,5.568,19.262,5.568,30.779c0,11.52-1.858,21.779-5.568,30.781c-3.717,9.006-8.683,16.563-14.9,22.699
			c-6.227,6.122-13.37,10.809-21.448,14.061S762.132,649.682,753.407,649.682z M753.407,616.54c8.354,0,14.666-3.535,18.941-10.588
			c4.268-7.061,6.403-16.621,6.403-28.689c0-12.076-2.135-21.631-6.403-28.688c-4.275-7.053-10.588-10.583-18.941-10.583
			c-8.543,0-14.902,3.53-19.08,10.583c-4.178,7.058-6.266,16.612-6.266,28.688c0,12.068,2.088,21.629,6.266,28.689
			C738.504,613.005,744.864,616.54,753.407,616.54z"/>
		<path fill="#094632" d="M842.531,590.354v-28.969h68.516v28.969H842.531z"/>
		<path fill="#094632" d="M981.788,649.682c-9.095,0-18.429-1.768-27.989-5.294c-9.564-3.526-17.87-8.174-24.923-13.933
			l18.376-25.619c6.311,4.833,12.349,8.452,18.109,10.862c5.753,2.419,11.601,3.615,17.543,3.615c6.129,0,10.582-1.01,13.372-3.057
			c2.785-2.047,4.176-4.918,4.176-8.639c0-2.232-0.791-4.217-2.363-5.989c-1.586-1.755-3.717-3.376-6.413-4.868
			c-2.69-1.484-5.705-2.832-9.05-4.045c-3.343-1.205-6.78-2.543-10.307-4.036c-4.269-1.67-8.539-3.624-12.808-5.843
			c-4.275-2.242-8.176-4.971-11.702-8.219c-3.528-3.256-6.408-7.053-8.634-11.416c-2.227-4.372-3.343-9.427-3.343-15.186
			c0-6.309,1.252-12.156,3.759-17.553c2.512-5.378,6.085-9.923,10.729-13.64c4.637-3.717,10.205-6.641,16.708-8.776
			c6.495-2.135,13.738-3.193,21.726-3.193c10.581,0,19.866,1.794,27.845,5.418c7.987,3.623,14.951,7.664,20.896,12.129
			l-18.382,24.494c-5.013-3.708-9.935-6.583-14.762-8.635c-4.835-2.033-9.662-3.061-14.481-3.061
			c-10.404,0-15.599,3.619-15.599,10.871c0,2.229,0.735,4.133,2.227,5.711c1.483,1.576,3.479,3.021,5.991,4.314
			c2.499,1.298,5.378,2.543,8.632,3.756c3.25,1.215,6.639,2.464,10.167,3.766c4.452,1.666,8.865,3.571,13.229,5.707
			c4.357,2.135,8.353,4.784,11.975,7.938c3.624,3.154,6.552,7.01,8.778,11.555c2.226,4.554,3.342,9.984,3.342,16.298
			s-1.211,12.161-3.623,17.548c-2.417,5.383-6.038,10.074-10.865,14.061c-4.826,3.996-10.771,7.159-17.824,9.48
			C999.238,648.517,991.076,649.682,981.788,649.682z"/>
		<path fill="#094632" d="M1126.345,649.682c-9.846,0-19.036-1.626-27.575-4.878c-8.543-3.252-15.973-7.982-22.283-14.202
			s-11.234-13.786-14.761-22.7c-3.533-8.913-5.289-19.119-5.289-30.639c0-11.141,1.852-21.211,5.568-30.221
			c3.71-9.002,8.585-16.613,14.617-22.846c6.04-6.207,12.957-10.996,20.752-14.341c7.804-3.341,15.878-5.001,24.23-5.001
			c9.846,0,18.432,1.66,25.763,5.001c7.343,3.345,13.461,7.992,18.383,13.933c4.926,5.941,8.586,12.949,11.004,21.025
			c2.41,8.08,3.624,16.848,3.624,26.314c0,3.726-0.186,7.243-0.558,10.592c-0.377,3.336-0.745,5.844-1.112,7.518h-82.723
			c1.852,10.025,5.985,17.406,12.391,22.146c6.408,4.727,14.252,7.102,23.537,7.102c9.839,0,19.776-3.062,29.801-9.197
			l13.649,24.787c-7.062,4.828-14.902,8.643-23.532,11.42C1143.195,648.286,1134.698,649.682,1126.345,649.682z M1095.707,562.219
			h49.858c0-7.792-1.77-14.114-5.296-18.938c-3.528-4.824-9.472-7.243-17.827-7.243c-6.501,0-12.213,2.145-17.129,6.406
			C1100.392,546.723,1097.191,553.31,1095.707,562.219z"/>
		<path fill="#094632" d="M1249.448,649.682c-9.095,0-18.434-1.768-27.989-5.294c-9.564-3.526-17.875-8.174-24.933-13.933
			l18.39-25.619c6.304,4.833,12.342,8.452,18.097,10.862c5.759,2.419,11.606,3.615,17.552,3.615c6.127,0,10.579-1.01,13.365-3.057
			c2.782-2.047,4.183-4.918,4.183-8.639c0-2.232-0.793-4.217-2.375-5.989c-1.577-1.755-3.712-3.376-6.405-4.868
			c-2.685-1.484-5.706-2.832-9.047-4.045c-3.34-1.205-6.782-2.543-10.309-4.036c-4.275-1.67-8.546-3.624-12.812-5.843
			c-4.271-2.242-8.174-4.971-11.7-8.219c-3.526-3.256-6.405-7.053-8.63-11.416c-2.228-4.372-3.345-9.427-3.345-15.186
			c0-6.309,1.254-12.156,3.762-17.553c2.507-5.378,6.078-9.923,10.729-13.64c4.634-3.717,10.202-6.641,16.706-8.776
			c6.494-2.135,13.737-3.193,21.725-3.193c10.584,0,19.869,1.794,27.852,5.418c7.983,3.623,14.947,7.664,20.893,12.129
			l-18.385,24.494c-5.011-3.708-9.933-6.583-14.761-8.635c-4.834-2.033-9.662-3.061-14.486-3.061
			c-10.397,0-15.594,3.619-15.594,10.871c0,2.229,0.735,4.133,2.228,5.711c1.484,1.576,3.479,3.021,5.985,4.314
			c2.512,1.298,5.387,2.543,8.63,3.756c3.252,1.215,6.641,2.464,10.172,3.766c4.456,1.666,8.859,3.571,13.228,5.707
			c4.359,2.135,8.355,4.784,11.979,7.938c3.623,3.154,6.543,7.01,8.771,11.555c2.232,4.554,3.34,9.984,3.34,16.298
			s-1.205,12.161-3.615,17.548c-2.419,5.383-6.038,10.074-10.866,14.061c-4.825,3.996-10.77,7.159-17.822,9.48
			C1266.898,648.517,1258.729,649.682,1249.448,649.682z"/>
		<path fill="#094632" d="M1366.982,649.682c-6.313,0-12.023-1.067-17.132-3.203c-5.107-2.136-9.422-5.112-12.948-8.913
			c-3.526-3.811-6.265-8.223-8.218-13.237c-1.945-5.015-2.92-10.485-2.92-16.427c0-14.486,6.127-25.813,18.381-33.982
			c12.258-8.174,32.024-13.649,59.322-16.432c-0.376-6.131-2.18-11.004-5.427-14.628c-3.256-3.614-8.688-5.427-16.294-5.427
			c-5.949,0-11.841,1.117-17.688,3.336c-5.848,2.232-12.116,5.303-18.802,9.197l-14.761-27.016
			c8.913-5.387,18.243-9.75,27.993-13.095c9.742-3.341,20.1-5.001,31.055-5.001c17.822,0,31.423,5.055,40.806,15.168
			c9.374,10.132,14.062,25.858,14.062,47.221v79.09h-33.421l-2.782-14.203h-1.116c-5.945,5.205-12.169,9.422-18.659,12.674
			C1381.924,648.056,1374.779,649.682,1366.982,649.682z M1380.91,617.927c4.639,0,8.634-1.014,11.979-3.07
			c3.341-2.042,6.858-4.917,10.579-8.629v-24.229c-14.481,2.043-24.512,5.011-30.08,8.914c-5.568,3.894-8.354,8.545-8.354,13.923
			c0,4.452,1.435,7.753,4.314,9.888C1372.222,616.859,1376.077,617.927,1380.91,617.927z"/>
		<path fill="#094632" d="M1478.952,646.333V508.181h33.425l2.782,17.836h1.107c5.754-5.755,11.881-10.725,18.385-14.902
			c6.494-4.174,14.3-6.26,23.399-6.26c9.839,0,17.777,1.988,23.807,5.976c6.034,4.005,10.818,9.711,14.35,17.132
			c6.126-6.305,12.581-11.736,19.354-16.29c6.782-4.554,14.81-6.817,24.096-6.817c14.849,0,25.765,4.957,32.729,14.898
			c6.955,9.932,10.442,23.527,10.442,40.801v85.779h-40.943v-80.49c0-10.029-1.347-16.896-4.04-20.609
			c-2.693-3.712-7.008-5.572-12.953-5.572c-6.871,0-14.761,4.457-23.675,13.369v93.303h-40.938v-80.49
			c0-10.029-1.352-16.896-4.036-20.609c-2.698-3.712-7.018-5.572-12.953-5.572c-7.066,0-14.858,4.457-23.4,13.369v93.303H1478.952z"
			/>
		<path fill="#094632" d="M1779.473,649.682c-9.844,0-19.036-1.626-27.572-4.878c-8.546-3.252-15.975-7.982-22.283-14.202
			c-6.313-6.22-11.234-13.786-14.761-22.7c-3.526-8.913-5.29-19.119-5.29-30.639c0-11.141,1.852-21.211,5.568-30.221
			c3.708-9.002,8.586-16.613,14.615-22.846c6.033-6.207,12.958-10.996,20.755-14.341c7.801-3.341,15.877-5.001,24.236-5.001
			c9.831,0,18.425,1.66,25.761,5.001c7.337,3.345,13.464,7.992,18.376,13.933c4.927,5.941,8.586,12.949,11.005,21.025
			c2.419,8.08,3.624,16.848,3.624,26.314c0,3.726-0.191,7.243-0.559,10.592c-0.377,3.336-0.744,5.844-1.112,7.518h-82.723
			c1.853,10.025,5.985,17.406,12.392,22.146c6.405,4.727,14.251,7.102,23.537,7.102c9.839,0,19.779-3.062,29.801-9.197
			l13.648,24.787c-7.057,4.828-14.902,8.643-23.532,11.42C1796.326,648.286,1787.829,649.682,1779.473,649.682z M1748.835,562.219
			h49.86c0-7.792-1.772-14.114-5.299-18.938s-9.472-7.243-17.826-7.243c-6.499,0-12.205,2.145-17.127,6.406
			C1753.522,546.723,1750.319,553.31,1748.835,562.219z"/>
	</g>
	<g>
		<path fill="#094632" d="M1397.132,125.729h-47.052V65.14h-107.717v60.59h-87.175C1128.68,52.346,1060.813,0,981.456,0H878.764
			c6.417,3.858,12.646,8.032,18.624,12.537c14.444,10.898,27.584,23.568,39.029,37.797c2.255,2.804,4.419,5.679,6.543,8.603
			c6.258,8.585,11.901,17.689,16.932,27.187h21.563c56.611,0,102.662,48.443,102.662,107.983c0,59.531-46.051,107.97-102.662,107.97
			h-48.197H841.65c-10.391,0-20.421-1.648-29.881-4.678c-6.563-2.109-12.806-4.963-18.742-8.329
			c-6.098-3.464-11.859-7.514-17.142-12.156c-22.531-19.819-36.9-49.572-36.9-82.807c0-27.67,9.997-52.891,26.335-72.002
			c-0.938-0.35-1.841-0.766-2.796-1.076c-6.691-2.144-13.786-3.305-21.138-3.305h-64.801h-5.535
			c-9.664,23.453-15.063,49.263-15.063,76.383c0,44.021,14.127,84.632,37.846,117.224c1.839,2.534,3.722,5.033,5.675,7.465
			c1.413,1.764,2.924,3.429,4.397,5.13c2.215,2.561,4.49,5.05,6.831,7.491c7.03,7.292,14.562,14.074,22.62,20.152
			c30.505,23.006,67.891,36.628,108.293,36.628h10.817h128.988c79.364,0,147.23-52.341,173.733-125.729h241.943V125.729z"/>
		<path fill="#094632" d="M667.077,337.872c-2.255-2.809-4.424-5.68-6.548-8.6c-6.253-8.59-11.897-17.697-16.932-27.187h-21.562
			c-56.609,0-102.667-48.447-102.667-107.987c0-59.531,46.057-107.97,102.667-107.97h48.199h91.605
			c10.393,0,20.422,1.644,29.883,4.678c6.561,2.104,12.805,4.958,18.739,8.329c6.098,3.464,11.861,7.509,17.142,12.152
			c22.533,19.82,36.9,49.572,36.9,82.811c0,27.67-9.994,52.887-26.335,71.997c0.935,0.354,1.841,0.771,2.796,1.077
			c6.691,2.144,13.788,3.309,21.14,3.309h64.801h5.535c9.662-23.448,15.061-49.262,15.061-76.383
			c0-44.026-14.128-84.632-37.844-117.229c-1.843-2.534-3.722-5.032-5.675-7.46c-1.416-1.754-2.929-3.429-4.399-5.134
			c-2.213-2.556-4.49-5.046-6.829-7.482c-7.032-7.292-14.562-14.079-22.622-20.157C839.627,13.627,802.242,0.004,761.84,0.004
			h-10.816H622.036c-102.374,0-185.664,87.064-185.664,194.094s83.29,194.116,185.664,194.116h102.691
			c-6.417-3.872-12.646-8.045-18.626-12.55C691.659,364.771,678.517,352.101,667.077,337.872z"/>
	</g>
</g>
</svg>
